<svg width="738" height="358" viewBox="0 0 738 358" fill="none" xmlns="http://www.w3.org/2000/svg">
<rect x="16.5" y="1.41406" width="704.239" height="355.812" rx="6.5" fill="white"/>
<line x1="61.2188" y1="100.601" x2="61.2188" y2="307.421" stroke="url(#paint0_linear_121_56969)"/>
<line x1="117.116" y1="100.601" x2="117.116" y2="307.421" stroke="url(#paint1_linear_121_56969)"/>
<line x1="173.014" y1="100.601" x2="173.014" y2="307.421" stroke="url(#paint2_linear_121_56969)"/>
<line x1="228.911" y1="100.601" x2="228.911" y2="307.421" stroke="url(#paint3_linear_121_56969)"/>
<line x1="284.809" y1="100.601" x2="284.809" y2="307.421" stroke="url(#paint4_linear_121_56969)"/>
<line x1="340.706" y1="100.601" x2="340.706" y2="307.421" stroke="url(#paint5_linear_121_56969)"/>
<line x1="396.604" y1="100.601" x2="396.604" y2="307.421" stroke="url(#paint6_linear_121_56969)"/>
<line x1="452.501" y1="100.601" x2="452.501" y2="307.421" stroke="url(#paint7_linear_121_56969)"/>
<line x1="508.398" y1="100.601" x2="508.398" y2="307.421" stroke="url(#paint8_linear_121_56969)"/>
<line x1="564.296" y1="100.601" x2="564.296" y2="307.421" stroke="url(#paint9_linear_121_56969)"/>
<line x1="620.193" y1="100.601" x2="620.193" y2="307.421" stroke="url(#paint10_linear_121_56969)"/>
<line x1="676.091" y1="100.601" x2="676.091" y2="307.421" stroke="url(#paint11_linear_121_56969)"/>
<path d="M54.6048 325.094C54.5452 324.59 54.3032 324.199 53.879 323.921C53.4548 323.642 52.9344 323.503 52.3179 323.503C51.8672 323.503 51.4727 323.576 51.1347 323.722C50.7999 323.868 50.5381 324.068 50.3492 324.324C50.1636 324.579 50.0708 324.869 50.0708 325.194C50.0708 325.465 50.1354 325.699 50.2646 325.895C50.3972 326.087 50.5663 326.248 50.7718 326.377C50.9772 326.503 51.1927 326.607 51.4181 326.69C51.6434 326.77 51.8506 326.834 52.0395 326.884L53.0736 327.162C53.3387 327.232 53.6337 327.328 53.9585 327.451C54.2867 327.573 54.5999 327.741 54.8982 327.953C55.1998 328.162 55.4484 328.43 55.6439 328.758C55.8395 329.086 55.9372 329.489 55.9372 329.966C55.9372 330.516 55.7931 331.014 55.5047 331.458C55.2197 331.902 54.8021 332.255 54.2519 332.517C53.705 332.779 53.0405 332.909 52.2583 332.909C51.5291 332.909 50.8977 332.792 50.3641 332.556C49.8338 332.321 49.4162 331.993 49.1112 331.572C48.8096 331.151 48.6389 330.662 48.5992 330.105H49.8719C49.905 330.49 50.0343 330.808 50.2597 331.06C50.4884 331.309 50.7767 331.494 51.1247 331.617C51.4761 331.736 51.8539 331.796 52.2583 331.796C52.7289 331.796 53.1515 331.72 53.526 331.567C53.9005 331.411 54.1972 331.196 54.4159 330.921C54.6347 330.642 54.7441 330.318 54.7441 329.946C54.7441 329.608 54.6496 329.333 54.4607 329.121C54.2718 328.909 54.0232 328.737 53.7149 328.604C53.4067 328.471 53.0736 328.355 52.7156 328.256L51.4628 327.898C50.6673 327.669 50.0376 327.343 49.5736 326.919C49.1096 326.494 48.8776 325.939 48.8776 325.253C48.8776 324.683 49.0317 324.186 49.3399 323.762C49.6515 323.334 50.0691 323.003 50.5928 322.767C51.1198 322.529 51.7081 322.409 52.3577 322.409C53.0139 322.409 53.5973 322.527 54.1077 322.762C54.6181 322.994 55.0225 323.313 55.3208 323.717C55.6224 324.121 55.7815 324.58 55.798 325.094H54.6048ZM61.007 332.89C60.2712 332.89 59.6365 332.727 59.1029 332.402C58.5726 332.074 58.1633 331.617 57.8749 331.03C57.5899 330.44 57.4474 329.754 57.4474 328.972C57.4474 328.19 57.5899 327.5 57.8749 326.904C58.1633 326.304 58.5643 325.837 59.078 325.502C59.5951 325.164 60.1983 324.995 60.8877 324.995C61.2854 324.995 61.6782 325.061 62.066 325.194C62.4537 325.326 62.8067 325.542 63.1249 325.84C63.4431 326.135 63.6966 326.526 63.8856 327.013C64.0745 327.5 64.1689 328.1 64.1689 328.813V329.31H58.2826V328.296H62.9758C62.9758 327.865 62.8896 327.48 62.7172 327.142C62.5482 326.804 62.3063 326.538 61.9914 326.342C61.6798 326.146 61.3119 326.049 60.8877 326.049C60.4204 326.049 60.016 326.165 59.6746 326.397C59.3366 326.625 59.0764 326.924 58.8941 327.292C58.7118 327.659 58.6206 328.054 58.6206 328.475V329.151C58.6206 329.728 58.7201 330.217 58.9189 330.618C59.1211 331.015 59.4012 331.319 59.7591 331.527C60.1171 331.733 60.5331 331.836 61.007 331.836C61.3153 331.836 61.5937 331.792 61.8422 331.706C62.0941 331.617 62.3112 331.484 62.4935 331.309C62.6758 331.13 62.8167 330.908 62.9161 330.642L64.0496 330.961C63.9303 331.345 63.7298 331.683 63.4481 331.975C63.1663 332.263 62.8183 332.489 62.404 332.651C61.9897 332.81 61.5241 332.89 61.007 332.89ZM65.9537 335.594V325.094H67.0873V326.307H67.2265C67.3126 326.175 67.432 326.006 67.5844 325.8C67.7402 325.591 67.9623 325.406 68.2506 325.243C68.5423 325.078 68.9367 324.995 69.4339 324.995C70.0769 324.995 70.6436 325.155 71.1341 325.477C71.6247 325.798 72.0075 326.254 72.2826 326.844C72.5577 327.434 72.6952 328.13 72.6952 328.932C72.6952 329.741 72.5577 330.442 72.2826 331.035C72.0075 331.625 71.6263 332.083 71.1391 332.407C70.6519 332.729 70.0901 332.89 69.4537 332.89C68.9632 332.89 68.5705 332.808 68.2755 332.646C67.9805 332.48 67.7535 332.293 67.5944 332.084C67.4353 331.872 67.3126 331.696 67.2265 331.557H67.127V335.594H65.9537ZM67.1072 328.912C67.1072 329.489 67.1917 329.998 67.3607 330.439C67.5297 330.876 67.7767 331.219 68.1015 331.468C68.4263 331.713 68.824 331.836 69.2947 331.836C69.7852 331.836 70.1945 331.706 70.5226 331.448C70.8541 331.186 71.1027 330.835 71.2684 330.394C71.4374 329.95 71.5219 329.456 71.5219 328.912C71.5219 328.375 71.4391 327.891 71.2733 327.461C71.1109 327.026 70.864 326.683 70.5326 326.431C70.2045 326.176 69.7918 326.049 69.2947 326.049C68.8174 326.049 68.4163 326.17 68.0915 326.412C67.7667 326.65 67.5215 326.985 67.3557 327.416C67.19 327.843 67.1072 328.342 67.1072 328.912Z" fill="#637381"/>
<path d="M114.475 327.64C114.475 328.713 114.281 329.641 113.894 330.424C113.506 331.206 112.974 331.809 112.298 332.233C111.622 332.658 110.849 332.87 109.981 332.87C109.113 332.87 108.34 332.658 107.664 332.233C106.988 331.809 106.456 331.206 106.068 330.424C105.68 329.641 105.487 328.713 105.487 327.64C105.487 326.566 105.68 325.638 106.068 324.855C106.456 324.073 106.988 323.47 107.664 323.046C108.34 322.622 109.113 322.409 109.981 322.409C110.849 322.409 111.622 322.622 112.298 323.046C112.974 323.47 113.506 324.073 113.894 324.855C114.281 325.638 114.475 326.566 114.475 327.64ZM113.282 327.64C113.282 326.758 113.135 326.014 112.84 325.407C112.548 324.801 112.152 324.342 111.651 324.03C111.154 323.719 110.597 323.563 109.981 323.563C109.364 323.563 108.806 323.719 108.305 324.03C107.808 324.342 107.412 324.801 107.117 325.407C106.826 326.014 106.68 326.758 106.68 327.64C106.68 328.521 106.826 329.265 107.117 329.872C107.412 330.478 107.808 330.937 108.305 331.249C108.806 331.56 109.364 331.716 109.981 331.716C110.597 331.716 111.154 331.56 111.651 331.249C112.152 330.937 112.548 330.478 112.84 329.872C113.135 329.265 113.282 328.521 113.282 327.64ZM119.492 332.89C118.776 332.89 118.159 332.721 117.642 332.382C117.125 332.044 116.727 331.579 116.449 330.985C116.171 330.392 116.031 329.714 116.031 328.952C116.031 328.176 116.174 327.492 116.459 326.899C116.747 326.302 117.148 325.837 117.662 325.502C118.179 325.164 118.782 324.995 119.472 324.995C120.009 324.995 120.493 325.094 120.923 325.293C121.354 325.492 121.707 325.77 121.982 326.128C122.257 326.486 122.428 326.904 122.494 327.381H121.321C121.232 327.033 121.033 326.725 120.725 326.456C120.42 326.185 120.009 326.049 119.492 326.049C119.034 326.049 118.633 326.168 118.288 326.407C117.947 326.642 117.68 326.975 117.488 327.406C117.299 327.833 117.205 328.336 117.205 328.912C117.205 329.502 117.297 330.016 117.483 330.453C117.672 330.891 117.937 331.231 118.278 331.473C118.623 331.715 119.028 331.836 119.492 331.836C119.796 331.836 120.073 331.783 120.322 331.676C120.57 331.57 120.781 331.418 120.953 331.219C121.126 331.02 121.248 330.782 121.321 330.503H122.494C122.428 330.954 122.264 331.36 122.002 331.721C121.744 332.079 121.401 332.364 120.973 332.576C120.549 332.785 120.055 332.89 119.492 332.89ZM127.531 325.094V326.088H123.573V325.094H127.531ZM124.727 323.265H125.9V330.543C125.9 330.874 125.948 331.123 126.044 331.289C126.144 331.451 126.27 331.56 126.422 331.617C126.578 331.67 126.742 331.696 126.914 331.696C127.043 331.696 127.149 331.69 127.232 331.676C127.315 331.66 127.381 331.647 127.431 331.637L127.67 332.691C127.59 332.721 127.479 332.75 127.337 332.78C127.194 332.813 127.014 332.83 126.795 332.83C126.463 332.83 126.139 332.759 125.82 332.616C125.506 332.474 125.244 332.257 125.035 331.965C124.829 331.673 124.727 331.305 124.727 330.861V323.265Z" fill="#637381"/>
<path d="M169.002 322.549V332.73H167.809L162.261 324.736H162.161V332.73H160.928V322.549H162.121L167.69 330.563H167.789V322.549H169.002ZM174.412 332.89C173.723 332.89 173.118 332.725 172.598 332.397C172.081 332.069 171.676 331.61 171.385 331.02C171.096 330.43 170.952 329.741 170.952 328.952C170.952 328.157 171.096 327.462 171.385 326.869C171.676 326.276 172.081 325.815 172.598 325.487C173.118 325.159 173.723 324.995 174.412 324.995C175.102 324.995 175.705 325.159 176.222 325.487C176.742 325.815 177.147 326.276 177.435 326.869C177.727 327.462 177.873 328.157 177.873 328.952C177.873 329.741 177.727 330.43 177.435 331.02C177.147 331.61 176.742 332.069 176.222 332.397C175.705 332.725 175.102 332.89 174.412 332.89ZM174.412 331.836C174.936 331.836 175.367 331.701 175.705 331.433C176.043 331.164 176.293 330.811 176.456 330.374C176.618 329.936 176.699 329.462 176.699 328.952C176.699 328.442 176.618 327.966 176.456 327.525C176.293 327.084 176.043 326.728 175.705 326.456C175.367 326.185 174.936 326.049 174.412 326.049C173.889 326.049 173.458 326.185 173.12 326.456C172.782 326.728 172.532 327.084 172.369 327.525C172.207 327.966 172.126 328.442 172.126 328.952C172.126 329.462 172.207 329.936 172.369 330.374C172.532 330.811 172.782 331.164 173.12 331.433C173.458 331.701 173.889 331.836 174.412 331.836ZM185.635 325.094L182.811 332.73H181.618L178.794 325.094H180.066L182.174 331.179H182.254L184.362 325.094H185.635Z" fill="#637381"/>
<path d="M220.159 332.73H217.017V322.549H220.298C221.286 322.549 222.131 322.752 222.834 323.16C223.537 323.565 224.075 324.146 224.45 324.905C224.824 325.661 225.011 326.566 225.011 327.62C225.011 328.68 224.823 329.593 224.445 330.359C224.067 331.121 223.517 331.708 222.794 332.119C222.072 332.527 221.193 332.73 220.159 332.73ZM218.25 331.637H220.08C220.921 331.637 221.619 331.474 222.173 331.15C222.726 330.825 223.139 330.362 223.411 329.762C223.682 329.163 223.818 328.448 223.818 327.62C223.818 326.798 223.684 326.09 223.416 325.497C223.147 324.9 222.746 324.443 222.212 324.125C221.679 323.803 221.014 323.642 220.219 323.642H218.25V331.637ZM230.122 332.89C229.386 332.89 228.752 332.727 228.218 332.402C227.688 332.074 227.278 331.617 226.99 331.03C226.705 330.44 226.563 329.754 226.563 328.972C226.563 328.19 226.705 327.5 226.99 326.904C227.278 326.304 227.68 325.837 228.193 325.502C228.71 325.164 229.314 324.995 230.003 324.995C230.401 324.995 230.793 325.061 231.181 325.194C231.569 325.326 231.922 325.542 232.24 325.84C232.558 326.135 232.812 326.526 233.001 327.013C233.19 327.5 233.284 328.1 233.284 328.813V329.31H227.398V328.296H232.091C232.091 327.865 232.005 327.48 231.832 327.142C231.663 326.804 231.421 326.538 231.107 326.342C230.795 326.146 230.427 326.049 230.003 326.049C229.536 326.049 229.131 326.165 228.79 326.397C228.452 326.625 228.192 326.924 228.009 327.292C227.827 327.659 227.736 328.054 227.736 328.475V329.151C227.736 329.728 227.835 330.217 228.034 330.618C228.236 331.015 228.516 331.319 228.874 331.527C229.232 331.733 229.648 331.836 230.122 331.836C230.43 331.836 230.709 331.792 230.957 331.706C231.209 331.617 231.426 331.484 231.609 331.309C231.791 331.13 231.932 330.908 232.031 330.642L233.165 330.961C233.046 331.345 232.845 331.683 232.563 331.975C232.282 332.263 231.934 332.489 231.519 332.651C231.105 332.81 230.639 332.89 230.122 332.89ZM238.171 332.89C237.455 332.89 236.839 332.721 236.322 332.382C235.805 332.044 235.407 331.579 235.129 330.985C234.85 330.392 234.711 329.714 234.711 328.952C234.711 328.176 234.854 327.492 235.139 326.899C235.427 326.302 235.828 325.837 236.342 325.502C236.859 325.164 237.462 324.995 238.151 324.995C238.688 324.995 239.172 325.094 239.603 325.293C240.034 325.492 240.387 325.77 240.662 326.128C240.937 326.486 241.108 326.904 241.174 327.381H240.001C239.911 327.033 239.712 326.725 239.404 326.456C239.099 326.185 238.688 326.049 238.171 326.049C237.714 326.049 237.313 326.168 236.968 326.407C236.627 326.642 236.36 326.975 236.168 327.406C235.979 327.833 235.884 328.336 235.884 328.912C235.884 329.502 235.977 330.016 236.163 330.453C236.352 330.891 236.617 331.231 236.958 331.473C237.303 331.715 237.707 331.836 238.171 331.836C238.476 331.836 238.753 331.783 239.002 331.676C239.25 331.57 239.461 331.418 239.633 331.219C239.805 331.02 239.928 330.782 240.001 330.503H241.174C241.108 330.954 240.944 331.36 240.682 331.721C240.423 332.079 240.08 332.364 239.653 332.576C239.229 332.785 238.735 332.89 238.171 332.89Z" fill="#637381"/>
<path d="M384.449 322.549H385.92L389.381 331H389.5L392.96 322.549H394.432V332.73H393.278V324.995H393.179L389.997 332.73H388.883L385.702 324.995H385.602V332.73H384.449V322.549ZM398.992 332.909C398.508 332.909 398.069 332.818 397.674 332.636C397.28 332.45 396.967 332.184 396.735 331.836C396.503 331.484 396.387 331.06 396.387 330.563C396.387 330.125 396.473 329.771 396.645 329.499C396.818 329.224 397.048 329.008 397.336 328.853C397.625 328.697 397.943 328.581 398.291 328.505C398.642 328.425 398.995 328.362 399.35 328.316C399.814 328.256 400.19 328.211 400.478 328.181C400.77 328.148 400.982 328.094 401.115 328.017C401.251 327.941 401.319 327.809 401.319 327.62V327.58C401.319 327.089 401.184 326.708 400.916 326.436C400.651 326.165 400.248 326.029 399.708 326.029C399.148 326.029 398.709 326.151 398.39 326.397C398.072 326.642 397.848 326.904 397.719 327.182L396.606 326.784C396.804 326.32 397.07 325.959 397.401 325.701C397.736 325.439 398.1 325.257 398.495 325.154C398.892 325.048 399.284 324.995 399.668 324.995C399.913 324.995 400.195 325.025 400.513 325.084C400.835 325.141 401.145 325.258 401.443 325.437C401.745 325.616 401.995 325.886 402.194 326.248C402.392 326.609 402.492 327.093 402.492 327.699V332.73H401.319V331.696H401.259C401.179 331.862 401.047 332.039 400.861 332.228C400.676 332.417 400.429 332.578 400.12 332.711C399.812 332.843 399.436 332.909 398.992 332.909ZM399.171 331.855C399.635 331.855 400.026 331.764 400.344 331.582C400.666 331.4 400.908 331.164 401.07 330.876C401.236 330.588 401.319 330.284 401.319 329.966V328.892C401.269 328.952 401.16 329.007 400.991 329.056C400.825 329.103 400.633 329.144 400.414 329.181C400.198 329.214 399.988 329.244 399.782 329.27C399.58 329.293 399.416 329.313 399.29 329.33C398.985 329.37 398.7 329.434 398.435 329.524C398.173 329.61 397.961 329.741 397.799 329.917C397.64 330.089 397.56 330.324 397.56 330.623C397.56 331.03 397.711 331.338 398.013 331.547C398.317 331.753 398.704 331.855 399.171 331.855ZM404.633 332.73V325.094H405.767V326.248H405.847C405.986 325.87 406.238 325.563 406.602 325.328C406.967 325.092 407.378 324.975 407.835 324.975C407.921 324.975 408.029 324.976 408.158 324.98C408.288 324.983 408.385 324.988 408.452 324.995V326.188C408.412 326.178 408.321 326.163 408.178 326.143C408.039 326.12 407.891 326.108 407.736 326.108C407.364 326.108 407.033 326.186 406.741 326.342C406.453 326.494 406.224 326.707 406.055 326.978C405.89 327.247 405.807 327.553 405.807 327.898V332.73H404.633Z" fill="#637381"/>
<path d="M277.42 322.549H278.653V329.827C278.653 330.477 278.533 331.029 278.295 331.483C278.056 331.937 277.72 332.281 277.286 332.517C276.851 332.752 276.339 332.87 275.749 332.87C275.192 332.87 274.697 332.769 274.263 332.566C273.829 332.361 273.487 332.069 273.239 331.691C272.99 331.314 272.866 330.864 272.866 330.344H274.079C274.079 330.632 274.15 330.884 274.293 331.1C274.438 331.312 274.637 331.478 274.889 331.597C275.141 331.716 275.428 331.776 275.749 331.776C276.104 331.776 276.406 331.701 276.654 331.552C276.903 331.403 277.092 331.184 277.221 330.896C277.353 330.604 277.42 330.248 277.42 329.827V322.549ZM283.212 332.909C282.728 332.909 282.289 332.818 281.894 332.636C281.5 332.45 281.187 332.184 280.955 331.836C280.723 331.484 280.607 331.06 280.607 330.563C280.607 330.125 280.693 329.771 280.865 329.499C281.037 329.224 281.268 329.008 281.556 328.853C281.844 328.697 282.163 328.581 282.511 328.505C282.862 328.425 283.215 328.362 283.57 328.316C284.034 328.256 284.41 328.211 284.698 328.181C284.99 328.148 285.202 328.094 285.335 328.017C285.47 327.941 285.538 327.809 285.538 327.62V327.58C285.538 327.089 285.404 326.708 285.136 326.436C284.871 326.165 284.468 326.029 283.928 326.029C283.367 326.029 282.928 326.151 282.61 326.397C282.292 326.642 282.068 326.904 281.939 327.182L280.825 326.784C281.024 326.32 281.289 325.959 281.621 325.701C281.955 325.439 282.32 325.257 282.714 325.154C283.112 325.048 283.503 324.995 283.888 324.995C284.133 324.995 284.415 325.025 284.733 325.084C285.054 325.141 285.364 325.258 285.663 325.437C285.964 325.616 286.214 325.886 286.413 326.248C286.612 326.609 286.712 327.093 286.712 327.699V332.73H285.538V331.696H285.479C285.399 331.862 285.267 332.039 285.081 332.228C284.895 332.417 284.648 332.578 284.34 332.711C284.032 332.843 283.656 332.909 283.212 332.909ZM283.391 331.855C283.855 331.855 284.246 331.764 284.564 331.582C284.885 331.4 285.127 331.164 285.29 330.876C285.455 330.588 285.538 330.284 285.538 329.966V328.892C285.489 328.952 285.379 329.007 285.21 329.056C285.045 329.103 284.852 329.144 284.634 329.181C284.418 329.214 284.208 329.244 284.002 329.27C283.8 329.293 283.636 329.313 283.51 329.33C283.205 329.37 282.92 329.434 282.655 329.524C282.393 329.61 282.181 329.741 282.018 329.917C281.859 330.089 281.78 330.324 281.78 330.623C281.78 331.03 281.931 331.338 282.232 331.547C282.537 331.753 282.923 331.855 283.391 331.855ZM290.026 328.137V332.73H288.853V325.094H289.987V326.287H290.086C290.265 325.9 290.537 325.588 290.901 325.353C291.266 325.114 291.737 324.995 292.313 324.995C292.83 324.995 293.283 325.101 293.671 325.313C294.058 325.522 294.36 325.84 294.575 326.267C294.791 326.692 294.899 327.229 294.899 327.878V332.73H293.725V327.958C293.725 327.358 293.57 326.891 293.258 326.556C292.946 326.218 292.519 326.049 291.975 326.049C291.601 326.049 291.266 326.13 290.971 326.292C290.679 326.455 290.449 326.692 290.28 327.003C290.111 327.315 290.026 327.693 290.026 328.137Z" fill="#637381"/>
<path d="M441.871 332.73H440.579L444.317 322.549H445.59L449.329 332.73H448.036L444.993 324.159H444.914L441.871 332.73ZM442.349 328.753H447.559V329.847H442.349V328.753ZM450.756 335.594V325.094H451.889V326.307H452.028C452.114 326.175 452.234 326.006 452.386 325.8C452.542 325.591 452.764 325.406 453.052 325.243C453.344 325.078 453.738 324.995 454.236 324.995C454.879 324.995 455.445 325.155 455.936 325.477C456.426 325.798 456.809 326.254 457.084 326.844C457.359 327.434 457.497 328.13 457.497 328.932C457.497 329.741 457.359 330.442 457.084 331.035C456.809 331.625 456.428 332.083 455.941 332.407C455.454 332.729 454.892 332.89 454.256 332.89C453.765 332.89 453.372 332.808 453.077 332.646C452.782 332.48 452.555 332.293 452.396 332.084C452.237 331.872 452.114 331.696 452.028 331.557H451.929V335.594H450.756ZM451.909 328.912C451.909 329.489 451.993 329.998 452.162 330.439C452.331 330.876 452.578 331.219 452.903 331.468C453.228 331.713 453.626 331.836 454.096 331.836C454.587 331.836 454.996 331.706 455.324 331.448C455.656 331.186 455.904 330.835 456.07 330.394C456.239 329.95 456.324 329.456 456.324 328.912C456.324 328.375 456.241 327.891 456.075 327.461C455.913 327.026 455.666 326.683 455.334 326.431C455.006 326.176 454.594 326.049 454.096 326.049C453.619 326.049 453.218 326.17 452.893 326.412C452.568 326.65 452.323 326.985 452.157 327.416C451.992 327.843 451.909 328.342 451.909 328.912ZM459.287 332.73V325.094H460.42V326.248H460.5C460.639 325.87 460.891 325.563 461.256 325.328C461.62 325.092 462.031 324.975 462.488 324.975C462.575 324.975 462.682 324.976 462.812 324.98C462.941 324.983 463.039 324.988 463.105 324.995V326.188C463.065 326.178 462.974 326.163 462.831 326.143C462.692 326.12 462.545 326.108 462.389 326.108C462.018 326.108 461.686 326.186 461.395 326.342C461.106 326.494 460.878 326.707 460.709 326.978C460.543 327.247 460.46 327.553 460.46 327.898V332.73H459.287Z" fill="#637381"/>
<path d="M329.509 332.73V322.549H335.614V323.642H330.742V327.083H335.157V328.176H330.742V332.73H329.509ZM340.208 332.89C339.472 332.89 338.838 332.727 338.304 332.402C337.774 332.074 337.364 331.617 337.076 331.03C336.791 330.44 336.649 329.754 336.649 328.972C336.649 328.19 336.791 327.5 337.076 326.904C337.364 326.304 337.765 325.837 338.279 325.502C338.796 325.164 339.399 324.995 340.089 324.995C340.487 324.995 340.879 325.061 341.267 325.194C341.655 325.326 342.008 325.542 342.326 325.84C342.644 326.135 342.898 326.526 343.087 327.013C343.276 327.5 343.37 328.1 343.37 328.813V329.31H337.484V328.296H342.177C342.177 327.865 342.091 327.48 341.918 327.142C341.749 326.804 341.507 326.538 341.193 326.342C340.881 326.146 340.513 326.049 340.089 326.049C339.622 326.049 339.217 326.165 338.876 326.397C338.538 326.625 338.278 326.924 338.095 327.292C337.913 327.659 337.822 328.054 337.822 328.475V329.151C337.822 329.728 337.921 330.217 338.12 330.618C338.322 331.015 338.602 331.319 338.96 331.527C339.318 331.733 339.734 331.836 340.208 331.836C340.516 331.836 340.795 331.792 341.043 331.706C341.295 331.617 341.512 331.484 341.695 331.309C341.877 331.13 342.018 330.908 342.117 330.642L343.251 330.961C343.131 331.345 342.931 331.683 342.649 331.975C342.368 332.263 342.02 332.489 341.605 332.651C341.191 332.81 340.725 332.89 340.208 332.89ZM345.314 332.73V322.549H346.487V326.307H346.587C346.673 326.175 346.792 326.006 346.945 325.8C347.1 325.591 347.323 325.406 347.611 325.243C347.903 325.078 348.297 324.995 348.794 324.995C349.437 324.995 350.004 325.155 350.494 325.477C350.985 325.798 351.368 326.254 351.643 326.844C351.918 327.434 352.055 328.13 352.055 328.932C352.055 329.741 351.918 330.442 351.643 331.035C351.368 331.625 350.987 332.083 350.499 332.407C350.012 332.729 349.45 332.89 348.814 332.89C348.323 332.89 347.931 332.808 347.636 332.646C347.341 332.48 347.114 332.293 346.955 332.084C346.796 331.872 346.673 331.696 346.587 331.557H346.448V332.73H345.314ZM346.467 328.912C346.467 329.489 346.552 329.998 346.721 330.439C346.89 330.876 347.137 331.219 347.462 331.468C347.787 331.713 348.184 331.836 348.655 331.836C349.145 331.836 349.555 331.706 349.883 331.448C350.214 331.186 350.463 330.835 350.629 330.394C350.798 329.95 350.882 329.456 350.882 328.912C350.882 328.375 350.799 327.891 350.634 327.461C350.471 327.026 350.224 326.683 349.893 326.431C349.565 326.176 349.152 326.049 348.655 326.049C348.178 326.049 347.777 326.17 347.452 326.412C347.127 326.65 346.882 326.985 346.716 327.416C346.55 327.843 346.467 328.342 346.467 328.912Z" fill="#637381"/>
<path d="M495.157 322.549H496.628L500.089 331H500.208L503.668 322.549H505.14V332.73H503.986V324.995H503.887L500.705 332.73H499.591L496.41 324.995H496.31V332.73H495.157V322.549ZM509.7 332.909C509.216 332.909 508.777 332.818 508.382 332.636C507.988 332.45 507.675 332.184 507.443 331.836C507.211 331.484 507.095 331.06 507.095 330.563C507.095 330.125 507.181 329.771 507.353 329.499C507.526 329.224 507.756 329.008 508.044 328.853C508.333 328.697 508.651 328.581 508.999 328.505C509.35 328.425 509.703 328.362 510.058 328.316C510.522 328.256 510.898 328.211 511.186 328.181C511.478 328.148 511.69 328.094 511.823 328.017C511.959 327.941 512.027 327.809 512.027 327.62V327.58C512.027 327.089 511.892 326.708 511.624 326.436C511.359 326.165 510.956 326.029 510.416 326.029C509.856 326.029 509.417 326.151 509.098 326.397C508.78 326.642 508.556 326.904 508.427 327.182L507.314 326.784C507.512 326.32 507.778 325.959 508.109 325.701C508.444 325.439 508.808 325.257 509.203 325.154C509.6 325.048 509.992 324.995 510.376 324.995C510.621 324.995 510.903 325.025 511.221 325.084C511.543 325.141 511.853 325.258 512.151 325.437C512.453 325.616 512.703 325.886 512.902 326.248C513.1 326.609 513.2 327.093 513.2 327.699V332.73H512.027V331.696H511.967C511.887 331.862 511.755 332.039 511.569 332.228C511.384 332.417 511.137 332.578 510.828 332.711C510.52 332.843 510.144 332.909 509.7 332.909ZM509.879 331.855C510.343 331.855 510.734 331.764 511.052 331.582C511.374 331.4 511.616 331.164 511.778 330.876C511.944 330.588 512.027 330.284 512.027 329.966V328.892C511.977 328.952 511.868 329.007 511.699 329.056C511.533 329.103 511.341 329.144 511.122 329.181C510.906 329.214 510.696 329.244 510.49 329.27C510.288 329.293 510.124 329.313 509.998 329.33C509.693 329.37 509.408 329.434 509.143 329.524C508.881 329.61 508.669 329.741 508.507 329.917C508.348 330.089 508.268 330.324 508.268 330.623C508.268 331.03 508.419 331.338 508.721 331.547C509.025 331.753 509.412 331.855 509.879 331.855ZM515.824 335.594C515.625 335.594 515.448 335.578 515.292 335.544C515.136 335.515 515.028 335.485 514.969 335.455L515.267 334.421C515.552 334.494 515.804 334.52 516.023 334.5C516.241 334.48 516.435 334.383 516.604 334.207C516.777 334.035 516.934 333.755 517.077 333.367L517.295 332.77L514.471 325.094H515.744L517.852 331.179H517.932L520.04 325.094H521.312L518.071 333.844C517.925 334.239 517.744 334.565 517.529 334.824C517.314 335.085 517.063 335.279 516.778 335.405C516.497 335.531 516.178 335.594 515.824 335.594Z" fill="#637381"/>
<path d="M556.784 322.549H558.017V329.827C558.017 330.477 557.898 331.029 557.659 331.483C557.42 331.937 557.084 332.281 556.65 332.517C556.216 332.752 555.704 332.87 555.114 332.87C554.557 332.87 554.061 332.769 553.627 332.566C553.193 332.361 552.851 332.069 552.603 331.691C552.354 331.314 552.23 330.864 552.23 330.344H553.443C553.443 330.632 553.514 330.884 553.657 331.1C553.803 331.312 554.002 331.478 554.253 331.597C554.505 331.716 554.792 331.776 555.114 331.776C555.468 331.776 555.77 331.701 556.018 331.552C556.267 331.403 556.456 331.184 556.585 330.896C556.718 330.604 556.784 330.248 556.784 329.827V322.549ZM565.141 329.608V325.094H566.315V332.73H565.141V331.438H565.062C564.883 331.826 564.604 332.155 564.226 332.427C563.849 332.696 563.371 332.83 562.795 332.83C562.317 332.83 561.893 332.725 561.522 332.517C561.151 332.305 560.859 331.986 560.647 331.562C560.435 331.135 560.329 330.596 560.329 329.946V325.094H561.502V329.867C561.502 330.424 561.658 330.868 561.969 331.199C562.284 331.531 562.685 331.696 563.172 331.696C563.464 331.696 563.761 331.622 564.062 331.473C564.367 331.324 564.623 331.095 564.828 330.787C565.037 330.478 565.141 330.086 565.141 329.608ZM569.637 328.137V332.73H568.464V325.094H569.597V326.287H569.696C569.875 325.9 570.147 325.588 570.512 325.353C570.876 325.114 571.347 324.995 571.924 324.995C572.441 324.995 572.893 325.101 573.281 325.313C573.669 325.522 573.97 325.84 574.186 326.267C574.401 326.692 574.509 327.229 574.509 327.878V332.73H573.336V327.958C573.336 327.358 573.18 326.891 572.868 326.556C572.557 326.218 572.129 326.049 571.586 326.049C571.211 326.049 570.876 326.13 570.581 326.292C570.29 326.455 570.059 326.692 569.89 327.003C569.721 327.315 569.637 327.693 569.637 328.137Z" fill="#637381"/>
<path d="M614.978 322.549H616.211V329.827C616.211 330.477 616.092 331.029 615.853 331.483C615.615 331.937 615.278 332.281 614.844 332.517C614.41 332.752 613.898 332.87 613.308 332.87C612.751 332.87 612.256 332.769 611.821 332.566C611.387 332.361 611.046 332.069 610.797 331.691C610.549 331.314 610.424 330.864 610.424 330.344H611.637C611.637 330.632 611.709 330.884 611.851 331.1C611.997 331.312 612.196 331.478 612.448 331.597C612.7 331.716 612.986 331.776 613.308 331.776C613.663 331.776 613.964 331.701 614.213 331.552C614.461 331.403 614.65 331.184 614.779 330.896C614.912 330.604 614.978 330.248 614.978 329.827V322.549ZM623.336 329.608V325.094H624.509V332.73H623.336V331.438H623.256C623.077 331.826 622.799 332.155 622.421 332.427C622.043 332.696 621.566 332.83 620.989 332.83C620.512 332.83 620.087 332.725 619.716 332.517C619.345 332.305 619.053 331.986 618.841 331.562C618.629 331.135 618.523 330.596 618.523 329.946V325.094H619.696V329.867C619.696 330.424 619.852 330.868 620.164 331.199C620.479 331.531 620.88 331.696 621.367 331.696C621.658 331.696 621.955 331.622 622.257 331.473C622.562 331.324 622.817 331.095 623.022 330.787C623.231 330.478 623.336 330.086 623.336 329.608ZM627.831 322.549V332.73H626.658V322.549H627.831Z" fill="#637381"/>
<path d="M664.567 332.73H663.274L667.013 322.549H668.285L672.024 332.73H670.731L667.689 324.159H667.609L664.567 332.73ZM665.044 328.753H670.254V329.847H665.044V328.753ZM678.263 329.608V325.094H679.437V332.73H678.263V331.438H678.184C678.005 331.826 677.726 332.155 677.349 332.427C676.971 332.696 676.493 332.83 675.917 332.83C675.439 332.83 675.015 332.725 674.644 332.517C674.273 332.305 673.981 331.986 673.769 331.562C673.557 331.135 673.451 330.596 673.451 329.946V325.094H674.624V329.867C674.624 330.424 674.78 330.868 675.091 331.199C675.406 331.531 675.807 331.696 676.295 331.696C676.586 331.696 676.883 331.622 677.184 331.473C677.489 331.324 677.745 331.095 677.95 330.787C678.159 330.478 678.263 330.086 678.263 329.608ZM684.668 335.753C684.101 335.753 683.614 335.68 683.206 335.534C682.799 335.392 682.459 335.203 682.187 334.968C681.919 334.736 681.705 334.487 681.546 334.222L682.48 333.566C682.587 333.705 682.721 333.864 682.883 334.043C683.046 334.225 683.268 334.383 683.549 334.515C683.834 334.651 684.207 334.719 684.668 334.719C685.284 334.719 685.793 334.57 686.194 334.272C686.595 333.973 686.796 333.506 686.796 332.87V331.319H686.696C686.61 331.458 686.488 331.63 686.328 331.836C686.173 332.038 685.947 332.218 685.652 332.377C685.361 332.533 684.966 332.611 684.469 332.611C683.853 332.611 683.299 332.465 682.809 332.174C682.321 331.882 681.935 331.458 681.65 330.901C681.368 330.344 681.228 329.668 681.228 328.873C681.228 328.09 681.365 327.409 681.64 326.829C681.915 326.246 682.298 325.795 682.789 325.477C683.279 325.155 683.846 324.995 684.489 324.995C684.986 324.995 685.381 325.078 685.672 325.243C685.967 325.406 686.193 325.591 686.348 325.8C686.507 326.006 686.63 326.175 686.716 326.307H686.836V325.094H687.969V332.949C687.969 333.605 687.82 334.139 687.522 334.55C687.227 334.964 686.829 335.268 686.328 335.46C685.831 335.655 685.278 335.753 684.668 335.753ZM684.628 331.557C685.099 331.557 685.497 331.449 685.821 331.234C686.146 331.019 686.393 330.709 686.562 330.304C686.731 329.9 686.816 329.416 686.816 328.853C686.816 328.302 686.733 327.817 686.567 327.396C686.401 326.975 686.156 326.645 685.831 326.407C685.507 326.168 685.105 326.049 684.628 326.049C684.131 326.049 683.717 326.175 683.385 326.426C683.057 326.678 682.81 327.016 682.645 327.441C682.482 327.865 682.401 328.336 682.401 328.853C682.401 329.383 682.484 329.852 682.65 330.26C682.819 330.664 683.067 330.982 683.395 331.214C683.727 331.443 684.138 331.557 684.628 331.557Z" fill="#637381"/>
<g filter="url(#filter0_d_121_56969)">
<path d="M60.7188 193.838C85.2329 190.545 118.479 181.178 154.706 203.714C174.377 215.952 199.531 237.075 231.088 225.773C259.213 215.699 295.544 175.73 348.926 203.714C369.086 214.25 408.097 234.272 445.184 203.714C485.539 170.464 486.913 144.126 559.603 170.464C595.937 183.629 627.479 182.644 677.454 150.05" stroke="#3056D3" stroke-width="4" stroke-linecap="round"/>
</g>
<g filter="url(#filter1_d_121_56969)">
<path d="M60.7188 255.624C140.814 235.217 184.867 312.208 251.346 247.275C282.825 216.527 298.602 185.126 350.264 177.704C415.357 168.353 472.497 280.187 543.766 224.965C615.035 169.743 620.159 247.275 677.454 218.055" stroke="#13C296" stroke-width="4" stroke-linecap="round"/>
</g>
<g filter="url(#filter2_d_121_56969)">
<circle cx="507.432" cy="159.755" r="10.7137" fill="#3056D3"/>
<circle cx="507.432" cy="159.755" r="7.71368" stroke="white" stroke-width="6"/>
</g>
<g filter="url(#filter3_d_121_56969)">
<rect x="430.573" y="97.7986" width="154.65" height="43.7863" rx="4" fill="white"/>
<path d="M507.898 147.176L501.443 140.888L514.352 140.888L507.898 147.176Z" fill="white"/>
<path d="M455.775 121.153C455.775 122.38 455.554 123.441 455.11 124.335C454.667 125.229 454.059 125.918 453.286 126.403C452.514 126.888 451.631 127.13 450.639 127.13C449.646 127.13 448.764 126.888 447.991 126.403C447.218 125.918 446.61 125.229 446.167 124.335C445.724 123.441 445.502 122.38 445.502 121.153C445.502 119.926 445.724 118.865 446.167 117.971C446.61 117.077 447.218 116.388 447.991 115.903C448.764 115.418 449.646 115.176 450.639 115.176C451.631 115.176 452.514 115.418 453.286 115.903C454.059 116.388 454.667 117.077 455.11 117.971C455.554 118.865 455.775 119.926 455.775 121.153ZM454.411 121.153C454.411 120.145 454.243 119.295 453.906 118.602C453.572 117.909 453.12 117.384 452.548 117.028C451.98 116.672 451.343 116.494 450.639 116.494C449.934 116.494 449.296 116.672 448.724 117.028C448.156 117.384 447.703 117.909 447.366 118.602C447.033 119.295 446.866 120.145 446.866 121.153C446.866 122.161 447.033 123.011 447.366 123.704C447.703 124.397 448.156 124.922 448.724 125.278C449.296 125.634 449.934 125.812 450.639 125.812C451.343 125.812 451.98 125.634 452.548 125.278C453.12 124.922 453.572 124.397 453.906 123.704C454.243 123.011 454.411 122.161 454.411 121.153ZM461.508 127.153C460.69 127.153 459.985 126.96 459.394 126.573C458.804 126.187 458.349 125.655 458.031 124.977C457.713 124.299 457.554 123.524 457.554 122.653C457.554 121.767 457.716 120.984 458.042 120.306C458.372 119.625 458.83 119.092 459.417 118.71C460.008 118.323 460.697 118.13 461.485 118.13C462.099 118.13 462.652 118.244 463.144 118.471C463.637 118.698 464.04 119.017 464.355 119.426C464.669 119.835 464.864 120.312 464.94 120.858H463.599C463.497 120.46 463.269 120.108 462.917 119.801C462.569 119.49 462.099 119.335 461.508 119.335C460.985 119.335 460.527 119.471 460.133 119.744C459.743 120.013 459.438 120.394 459.218 120.886C459.002 121.375 458.894 121.948 458.894 122.608C458.894 123.282 459.001 123.869 459.213 124.369C459.429 124.869 459.732 125.257 460.122 125.534C460.516 125.81 460.978 125.948 461.508 125.948C461.857 125.948 462.173 125.888 462.457 125.767C462.741 125.645 462.982 125.471 463.179 125.244C463.376 125.017 463.516 124.744 463.599 124.426H464.94C464.864 124.941 464.677 125.405 464.377 125.818C464.082 126.227 463.69 126.553 463.201 126.795C462.716 127.034 462.152 127.153 461.508 127.153ZM470.696 118.244V119.38H466.173V118.244H470.696ZM467.491 116.153H468.832V124.471C468.832 124.85 468.887 125.134 468.997 125.323C469.11 125.509 469.254 125.634 469.429 125.698C469.607 125.759 469.794 125.789 469.991 125.789C470.139 125.789 470.26 125.782 470.355 125.767C470.449 125.748 470.525 125.733 470.582 125.721L470.855 126.926C470.764 126.96 470.637 126.994 470.474 127.028C470.311 127.066 470.105 127.085 469.855 127.085C469.476 127.085 469.105 127.003 468.741 126.841C468.381 126.678 468.082 126.43 467.843 126.096C467.608 125.763 467.491 125.342 467.491 124.835V116.153ZM477.19 126.971V125.948L481.031 121.744C481.482 121.251 481.853 120.823 482.144 120.46C482.436 120.092 482.652 119.748 482.792 119.426C482.936 119.1 483.008 118.759 483.008 118.403C483.008 117.994 482.91 117.64 482.713 117.341C482.519 117.041 482.254 116.81 481.917 116.647C481.58 116.484 481.201 116.403 480.781 116.403C480.334 116.403 479.944 116.496 479.61 116.681C479.281 116.863 479.025 117.119 478.843 117.448C478.665 117.778 478.576 118.164 478.576 118.608H477.235C477.235 117.926 477.393 117.327 477.707 116.812C478.021 116.297 478.449 115.895 478.991 115.608C479.536 115.32 480.148 115.176 480.826 115.176C481.508 115.176 482.112 115.32 482.639 115.608C483.165 115.895 483.578 116.284 483.877 116.772C484.177 117.261 484.326 117.805 484.326 118.403C484.326 118.831 484.249 119.25 484.093 119.659C483.942 120.064 483.677 120.517 483.298 121.017C482.923 121.513 482.402 122.119 481.735 122.835L479.122 125.63V125.721H484.531V126.971H477.19ZM490.514 127.13C489.847 127.13 489.247 126.998 488.713 126.733C488.179 126.467 487.751 126.104 487.429 125.642C487.107 125.18 486.93 124.653 486.9 124.062H488.264C488.317 124.589 488.555 125.024 488.98 125.369C489.408 125.71 489.919 125.88 490.514 125.88C490.991 125.88 491.415 125.769 491.786 125.545C492.161 125.322 492.455 125.015 492.667 124.625C492.883 124.231 492.991 123.786 492.991 123.289C492.991 122.782 492.879 122.329 492.656 121.931C492.436 121.53 492.133 121.214 491.747 120.983C491.36 120.751 490.919 120.634 490.423 120.63C490.067 120.626 489.701 120.681 489.326 120.795C488.951 120.905 488.643 121.047 488.4 121.221L487.082 121.062L487.786 115.335H493.832V116.585H488.968L488.559 120.017H488.627C488.866 119.827 489.165 119.67 489.525 119.545C489.885 119.42 490.26 119.358 490.65 119.358C491.362 119.358 491.997 119.528 492.554 119.869C493.114 120.206 493.554 120.668 493.872 121.255C494.194 121.842 494.355 122.513 494.355 123.267C494.355 124.009 494.188 124.672 493.855 125.255C493.525 125.835 493.071 126.293 492.491 126.63C491.911 126.964 491.252 127.13 490.514 127.13Z" fill="#637381"/>
<path d="M524.72 128.426V113.88H525.652V128.426H524.72ZM527.635 118.392C527.574 117.854 527.324 117.437 526.885 117.142C526.445 116.842 525.892 116.693 525.226 116.693C524.748 116.693 524.336 116.769 523.987 116.92C523.639 117.068 523.368 117.272 523.175 117.534C522.985 117.791 522.89 118.085 522.89 118.414C522.89 118.691 522.955 118.93 523.084 119.13C523.216 119.331 523.389 119.5 523.601 119.636C523.817 119.769 524.048 119.88 524.294 119.971C524.54 120.058 524.777 120.13 525.004 120.187L526.14 120.483C526.512 120.573 526.892 120.697 527.282 120.852C527.673 121.007 528.034 121.212 528.368 121.466C528.701 121.719 528.97 122.034 529.175 122.409C529.383 122.784 529.487 123.233 529.487 123.755C529.487 124.414 529.317 125 528.976 125.511C528.639 126.022 528.148 126.426 527.504 126.721C526.864 127.017 526.089 127.164 525.18 127.164C524.309 127.164 523.555 127.026 522.919 126.75C522.282 126.473 521.784 126.081 521.425 125.573C521.065 125.062 520.866 124.456 520.828 123.755H522.589C522.623 124.176 522.76 124.526 522.998 124.806C523.241 125.083 523.55 125.289 523.925 125.426C524.303 125.558 524.718 125.625 525.169 125.625C525.665 125.625 526.106 125.547 526.493 125.392C526.883 125.233 527.19 125.013 527.413 124.733C527.637 124.448 527.748 124.117 527.748 123.738C527.748 123.394 527.65 123.111 527.453 122.892C527.26 122.672 526.997 122.49 526.663 122.346C526.334 122.202 525.961 122.075 525.544 121.966L524.169 121.591C523.237 121.337 522.498 120.964 521.953 120.471C521.411 119.979 521.14 119.327 521.14 118.517C521.14 117.846 521.322 117.261 521.686 116.761C522.05 116.261 522.542 115.873 523.163 115.596C523.784 115.316 524.485 115.176 525.265 115.176C526.053 115.176 526.748 115.314 527.351 115.591C527.957 115.867 528.434 116.248 528.782 116.733C529.131 117.214 529.313 117.767 529.328 118.392H527.635ZM535.477 127.13C534.697 127.13 534 126.996 533.386 126.727C532.776 126.458 532.293 126.085 531.937 125.608C531.585 125.126 531.396 124.57 531.369 123.937H533.153C533.176 124.282 533.291 124.581 533.5 124.835C533.712 125.085 533.988 125.278 534.329 125.414C534.67 125.551 535.049 125.619 535.466 125.619C535.924 125.619 536.329 125.539 536.682 125.38C537.038 125.221 537.316 125 537.517 124.716C537.718 124.428 537.818 124.096 537.818 123.721C537.818 123.331 537.718 122.988 537.517 122.693C537.32 122.394 537.03 122.159 536.648 121.988C536.269 121.818 535.81 121.733 535.273 121.733H534.29V120.301H535.273C535.704 120.301 536.083 120.223 536.409 120.068C536.738 119.912 536.996 119.697 537.182 119.42C537.367 119.14 537.46 118.812 537.46 118.437C537.46 118.077 537.379 117.765 537.216 117.5C537.057 117.231 536.829 117.02 536.534 116.869C536.242 116.717 535.898 116.642 535.5 116.642C535.121 116.642 534.767 116.712 534.437 116.852C534.112 116.988 533.846 117.185 533.642 117.443C533.437 117.697 533.327 118.001 533.312 118.358H531.613C531.632 117.729 531.818 117.176 532.17 116.698C532.526 116.221 532.996 115.848 533.579 115.579C534.163 115.31 534.81 115.176 535.523 115.176C536.269 115.176 536.913 115.322 537.454 115.613C538 115.901 538.42 116.286 538.716 116.767C539.015 117.248 539.163 117.774 539.159 118.346C539.163 118.998 538.981 119.551 538.613 120.005C538.25 120.46 537.765 120.765 537.159 120.92V121.011C537.932 121.128 538.53 121.435 538.954 121.931C539.382 122.428 539.595 123.043 539.591 123.778C539.595 124.418 539.416 124.992 539.057 125.5C538.701 126.007 538.214 126.407 537.596 126.698C536.979 126.986 536.273 127.13 535.477 127.13ZM543.628 125.38L543.542 126C543.486 126.454 543.389 126.928 543.253 127.42C543.12 127.916 542.982 128.376 542.838 128.801C542.698 129.225 542.582 129.562 542.491 129.812H541.287C541.336 129.577 541.404 129.259 541.491 128.858C541.578 128.46 541.664 128.015 541.747 127.522C541.83 127.03 541.893 126.528 541.934 126.017L541.991 125.38H543.628ZM546.099 126.971L551.179 116.926V116.841H545.304V115.335H552.997V116.892L547.934 126.971H546.099ZM558.67 127.13C557.856 127.13 557.136 126.99 556.511 126.71C555.89 126.43 555.403 126.043 555.051 125.551C554.699 125.058 554.524 124.498 554.528 123.869C554.524 123.376 554.625 122.924 554.829 122.511C555.038 122.094 555.32 121.748 555.676 121.471C556.032 121.191 556.43 121.013 556.869 120.937V120.869C556.29 120.729 555.826 120.418 555.477 119.937C555.129 119.456 554.956 118.903 554.96 118.278C554.956 117.683 555.113 117.153 555.432 116.687C555.754 116.217 556.195 115.848 556.756 115.579C557.316 115.31 557.954 115.176 558.67 115.176C559.379 115.176 560.011 115.312 560.568 115.585C561.129 115.854 561.57 116.223 561.892 116.693C562.214 117.159 562.377 117.687 562.381 118.278C562.377 118.903 562.199 119.456 561.846 119.937C561.494 120.418 561.036 120.729 560.471 120.869V120.937C560.907 121.013 561.299 121.191 561.648 121.471C562 121.748 562.28 122.094 562.488 122.511C562.701 122.924 562.809 123.376 562.812 123.869C562.809 124.498 562.631 125.058 562.278 125.551C561.926 126.043 561.437 126.43 560.812 126.71C560.191 126.99 559.477 127.13 558.67 127.13ZM558.67 125.693C559.151 125.693 559.568 125.613 559.92 125.454C560.273 125.291 560.545 125.066 560.738 124.778C560.932 124.486 561.03 124.145 561.034 123.755C561.03 123.35 560.924 122.992 560.716 122.681C560.511 122.371 560.233 122.126 559.881 121.948C559.528 121.77 559.125 121.681 558.67 121.681C558.212 121.681 557.805 121.77 557.449 121.948C557.093 122.126 556.812 122.371 556.608 122.681C556.403 122.992 556.303 123.35 556.307 123.755C556.303 124.145 556.396 124.486 556.585 124.778C556.778 125.066 557.053 125.291 557.409 125.454C557.765 125.613 558.185 125.693 558.67 125.693ZM558.67 120.278C559.057 120.278 559.399 120.2 559.699 120.045C559.998 119.89 560.233 119.674 560.403 119.397C560.577 119.121 560.666 118.797 560.67 118.426C560.666 118.062 560.579 117.744 560.409 117.471C560.242 117.198 560.009 116.988 559.71 116.841C559.411 116.689 559.064 116.613 558.67 116.613C558.269 116.613 557.916 116.689 557.613 116.841C557.314 116.988 557.081 117.198 556.915 117.471C556.748 117.744 556.666 118.062 556.67 118.426C556.666 118.797 556.75 119.121 556.92 119.397C557.091 119.674 557.326 119.89 557.625 120.045C557.928 120.2 558.276 120.278 558.67 120.278ZM568.899 127.164C568.001 127.161 567.234 126.924 566.598 126.454C565.961 125.984 565.475 125.301 565.138 124.403C564.8 123.505 564.632 122.424 564.632 121.159C564.632 119.897 564.8 118.82 565.138 117.926C565.479 117.032 565.967 116.35 566.604 115.88C567.244 115.411 568.009 115.176 568.899 115.176C569.789 115.176 570.552 115.412 571.189 115.886C571.825 116.356 572.312 117.037 572.649 117.931C572.99 118.822 573.16 119.897 573.16 121.159C573.16 122.428 572.992 123.511 572.655 124.409C572.318 125.303 571.831 125.986 571.194 126.46C570.558 126.93 569.793 127.164 568.899 127.164ZM568.899 125.647C569.687 125.647 570.302 125.263 570.746 124.494C571.193 123.725 571.416 122.613 571.416 121.159C571.416 120.193 571.314 119.376 571.109 118.71C570.908 118.039 570.619 117.532 570.24 117.187C569.865 116.839 569.418 116.664 568.899 116.664C568.115 116.664 567.499 117.051 567.052 117.823C566.605 118.596 566.38 119.708 566.376 121.159C566.376 122.128 566.477 122.948 566.677 123.619C566.882 124.286 567.172 124.791 567.547 125.136C567.922 125.477 568.372 125.647 568.899 125.647Z" fill="#212B36"/>
<line x1="506.535" y1="105.249" x2="506.535" y2="134.129" stroke="#E7E7E7"/>
</g>
<path d="M52.4407 59.408V33.9535H54.0714V59.408H52.4407ZM56.766 42.3554C56.6864 41.5534 56.3451 40.9303 55.7418 40.4861C55.1386 40.042 54.32 39.8199 53.2859 39.8199C52.5832 39.8199 51.9899 39.9194 51.506 40.1182C51.0221 40.3105 50.6509 40.5789 50.3924 40.9236C50.1405 41.2683 50.0146 41.6594 50.0146 42.0969C50.0013 42.4615 50.0775 42.7797 50.2433 43.0515C50.4156 43.3232 50.6509 43.5586 50.9492 43.7574C51.2475 43.9497 51.5922 44.1187 51.9833 44.2645C52.3744 44.4037 52.792 44.5231 53.2362 44.6225L55.0657 45.06C55.954 45.2589 56.7693 45.524 57.5117 45.8554C58.2541 46.1869 58.8971 46.5946 59.4407 47.0785C59.9843 47.5624 60.4052 48.1324 60.7035 48.7887C61.0084 49.4449 61.1642 50.1973 61.1708 51.0458C61.1642 52.292 60.846 53.3725 60.2163 54.2873C59.5932 55.1954 58.6916 55.9014 57.5117 56.4052C56.3384 56.9023 54.9232 57.1509 53.266 57.1509C51.622 57.1509 50.1902 56.899 48.9705 56.3952C47.7575 55.8914 46.8095 55.1457 46.1268 54.158C45.4506 53.1637 45.096 51.934 45.0629 50.4691H49.229C49.2754 51.1518 49.471 51.7219 49.8157 52.1793C50.167 52.6301 50.6344 52.9715 51.2177 53.2035C51.8076 53.4288 52.4738 53.5415 53.2163 53.5415C53.9454 53.5415 54.5785 53.4355 55.1154 53.2233C55.659 53.0112 56.0799 52.7162 56.3782 52.3384C56.6765 51.9606 56.8256 51.5264 56.8256 51.0358C56.8256 50.5785 56.6897 50.194 56.418 49.8824C56.1528 49.5709 55.7617 49.3057 55.2447 49.087C54.7343 48.8682 54.1078 48.6694 53.3654 48.4904L51.1481 47.9336C49.4312 47.516 48.0756 46.863 47.0813 45.9748C46.087 45.0865 45.5932 43.89 45.5998 42.3853C45.5932 41.1523 45.9213 40.0751 46.5842 39.1537C47.2537 38.2323 48.1718 37.5131 49.3384 36.9961C50.5051 36.479 51.8308 36.2205 53.3157 36.2205C54.8271 36.2205 56.1462 36.479 57.2731 36.9961C58.4066 37.5131 59.2882 38.2323 59.918 39.1537C60.5477 40.0751 60.8725 41.1424 60.8924 42.3554H56.766ZM71.4744 57.141C69.9896 57.141 68.6671 56.8857 67.5071 56.3753C66.3537 55.8583 65.4422 55.149 64.7727 54.2475C64.1098 53.3393 63.7685 52.292 63.7486 51.1054H68.0838C68.1103 51.6026 68.2727 52.0401 68.571 52.4179C68.8759 52.7892 69.2803 53.0775 69.7841 53.283C70.2879 53.4885 70.8546 53.5912 71.4844 53.5912C72.1406 53.5912 72.7206 53.4752 73.2244 53.2432C73.7282 53.0112 74.1226 52.6897 74.4077 52.2787C74.6927 51.8678 74.8352 51.3938 74.8352 50.8569C74.8352 50.3133 74.6828 49.8327 74.3778 49.4151C74.0795 48.9909 73.6487 48.6594 73.0852 48.4208C72.5284 48.1822 71.8655 48.0628 71.0966 48.0628H69.1974V44.9009H71.0966C71.7462 44.9009 72.3196 44.7882 72.8168 44.5628C73.3205 44.3375 73.7116 44.0259 73.9901 43.6282C74.2685 43.2238 74.4077 42.7532 74.4077 42.2162C74.4077 41.7058 74.285 41.2584 74.0398 40.8739C73.8011 40.4828 73.4631 40.1779 73.0256 39.9591C72.5947 39.7404 72.0909 39.631 71.5142 39.631C70.9309 39.631 70.3973 39.7371 69.9134 39.9492C69.4295 40.1547 69.0417 40.4497 68.75 40.8341C68.4583 41.2186 68.3026 41.6694 68.2827 42.1864H64.1562C64.1761 41.0131 64.5109 39.979 65.1605 39.0841C65.8101 38.1893 66.6851 37.4899 67.7855 36.9861C68.8925 36.4757 70.142 36.2205 71.5341 36.2205C72.9394 36.2205 74.169 36.4757 75.223 36.9861C76.277 37.4965 77.0956 38.1859 77.679 39.0543C78.2689 39.9161 78.5606 40.8839 78.554 41.9577C78.5606 43.0979 78.206 44.0491 77.4901 44.8114C76.7808 45.5737 75.8561 46.0576 74.7159 46.2631V46.4222C76.214 46.6144 77.3542 47.1348 78.1364 47.9833C78.9252 48.8251 79.3163 49.8791 79.3097 51.1452C79.3163 52.3053 78.9815 53.336 78.3054 54.2375C77.6359 55.1391 76.7112 55.8483 75.5312 56.3654C74.3513 56.8824 72.9991 57.141 71.4744 57.141ZM89.842 57.141C88.4367 57.141 87.1838 56.8824 86.0835 56.3654C84.9897 55.8483 84.1213 55.1357 83.4783 54.2276C82.8353 53.3195 82.5006 52.2787 82.4741 51.1054H86.6502C86.6966 51.8943 87.0281 52.534 87.6445 53.0245C88.261 53.515 88.9935 53.7603 89.842 53.7603C90.5181 53.7603 91.1147 53.6111 91.6317 53.3128C92.1554 53.0079 92.5631 52.587 92.8548 52.05C93.1531 51.5065 93.3022 50.8834 93.3022 50.1807C93.3022 49.4648 93.1497 48.8351 92.8448 48.2915C92.5465 47.748 92.1322 47.3237 91.6019 47.0188C91.0716 46.7139 90.4651 46.5581 89.7823 46.5515C89.1857 46.5515 88.6057 46.6741 88.0423 46.9194C87.4854 47.1646 87.0513 47.4994 86.7397 47.9236L82.9116 47.2375L83.8761 36.4989H96.3249V40.0188H87.4258L86.8988 45.1197H87.0181C87.3761 44.6159 87.9163 44.1982 88.6388 43.8668C89.3614 43.5354 90.1701 43.3697 91.065 43.3697C92.2913 43.3697 93.3851 43.658 94.3462 44.2347C95.3074 44.8114 96.0664 45.6036 96.6232 46.6111C97.18 47.6121 97.4551 48.7655 97.4485 50.0714C97.4551 51.4435 97.137 52.6632 96.494 53.7304C95.8576 54.7911 94.966 55.6263 93.8192 56.2361C92.6791 56.8393 91.3533 57.141 89.842 57.141ZM104.439 54.0785L104.329 55.1722C104.243 56.0472 104.077 56.9189 103.832 57.7873C103.593 58.6623 103.342 59.4544 103.076 60.1637C102.818 60.873 102.609 61.4298 102.45 61.8341H99.7056C99.805 61.443 99.9409 60.8962 100.113 60.1935C100.286 59.4975 100.448 58.7153 100.6 57.8469C100.753 56.9786 100.849 56.0936 100.889 55.1921L100.939 54.0785H104.439ZM115.048 57.141C113.517 57.141 112.154 56.8924 110.961 56.3952C109.775 55.8914 108.843 55.2054 108.167 54.337C107.491 53.4686 107.153 52.4842 107.153 51.3839C107.153 50.5354 107.345 49.7565 107.73 49.0472C108.121 48.3313 108.651 47.738 109.321 47.2674C109.99 46.7901 110.739 46.4852 111.568 46.3526V46.2134C110.481 45.9947 109.599 45.4677 108.923 44.6324C108.247 43.7906 107.909 42.8128 107.909 41.6992C107.909 40.6452 108.217 39.7072 108.833 38.8853C109.45 38.0567 110.295 37.4071 111.369 36.9364C112.449 36.4591 113.676 36.2205 115.048 36.2205C116.42 36.2205 117.643 36.4591 118.717 36.9364C119.797 37.4137 120.646 38.0666 121.262 38.8952C121.879 39.7172 122.19 40.6518 122.197 41.6992C122.19 42.8195 121.846 43.7972 121.163 44.6324C120.48 45.4677 119.605 45.9947 118.538 46.2134V46.3526C119.353 46.4852 120.092 46.7901 120.755 47.2674C121.425 47.738 121.955 48.3313 122.346 49.0472C122.744 49.7565 122.946 50.5354 122.953 51.3839C122.946 52.4842 122.605 53.4686 121.929 54.337C121.252 55.2054 120.318 55.8914 119.125 56.3952C117.938 56.8924 116.579 57.141 115.048 57.141ZM115.048 53.979C115.731 53.979 116.327 53.8564 116.838 53.6111C117.348 53.3592 117.746 53.0145 118.031 52.577C118.323 52.1329 118.468 51.6225 118.468 51.0458C118.468 50.4558 118.319 49.9355 118.021 49.4847C117.723 49.0273 117.318 48.6694 116.808 48.4108C116.297 48.1457 115.711 48.0131 115.048 48.0131C114.392 48.0131 113.805 48.1457 113.288 48.4108C112.771 48.6694 112.363 49.0273 112.065 49.4847C111.773 49.9355 111.627 50.4558 111.627 51.0458C111.627 51.6225 111.77 52.1329 112.055 52.577C112.34 53.0145 112.741 53.3592 113.258 53.6111C113.775 53.8564 114.372 53.979 115.048 53.979ZM115.048 44.881C115.618 44.881 116.125 44.765 116.569 44.533C117.013 44.301 117.361 43.9795 117.613 43.5685C117.865 43.1575 117.991 42.6836 117.991 42.1466C117.991 41.6163 117.865 41.1523 117.613 40.7546C117.361 40.3502 117.017 40.0354 116.579 39.81C116.142 39.578 115.631 39.462 115.048 39.462C114.471 39.462 113.961 39.578 113.517 39.81C113.073 40.0354 112.725 40.3502 112.473 40.7546C112.227 41.1523 112.105 41.6163 112.105 42.1466C112.105 42.6836 112.231 43.1575 112.483 43.5685C112.734 43.9795 113.083 44.301 113.527 44.533C113.971 44.765 114.478 44.881 115.048 44.881ZM126.082 56.8625V36.4989H130.388V45.4776H130.656L137.984 36.4989H143.145L135.588 45.6168L143.234 56.8625H138.084L132.506 48.4904L130.388 51.0756V56.8625H126.082Z" fill="#212B36"/>
<path d="M55.1765 76.4479C55.1765 77.6752 54.9549 78.7358 54.5117 79.6297C54.0685 80.5237 53.4606 81.2131 52.6879 81.6979C51.9151 82.1828 51.0326 82.4252 50.0401 82.4252C49.0477 82.4252 48.1651 82.1828 47.3924 81.6979C46.6197 81.2131 46.0117 80.5237 45.5685 79.6297C45.1254 78.7358 44.9038 77.6752 44.9038 76.4479C44.9038 75.2207 45.1254 74.1601 45.5685 73.2661C46.0117 72.3722 46.6197 71.6828 47.3924 71.1979C48.1651 70.7131 49.0477 70.4707 50.0401 70.4707C51.0326 70.4707 51.9151 70.7131 52.6879 71.1979C53.4606 71.6828 54.0685 72.3722 54.5117 73.2661C54.9549 74.1601 55.1765 75.2207 55.1765 76.4479ZM53.8129 76.4479C53.8129 75.4404 53.6443 74.59 53.3072 73.8968C52.9738 73.2036 52.5212 72.679 51.9492 72.3229C51.381 71.9669 50.7447 71.7888 50.0401 71.7888C49.3356 71.7888 48.6973 71.9669 48.1254 72.3229C47.5572 72.679 47.1045 73.2036 46.7674 73.8968C46.4341 74.59 46.2674 75.4404 46.2674 76.4479C46.2674 77.4555 46.4341 78.3059 46.7674 78.9991C47.1045 79.6922 47.5572 80.2169 48.1254 80.5729C48.6973 80.929 49.3356 81.107 50.0401 81.107C50.7447 81.107 51.381 80.929 51.9492 80.5729C52.5212 80.2169 52.9738 79.6922 53.3072 78.9991C53.6443 78.3059 53.8129 77.4555 53.8129 76.4479ZM64.5004 73.5388L61.2731 82.2661H59.9094L56.6822 73.5388H58.1367L60.5458 80.4934H60.6367L63.0458 73.5388H64.5004ZM69.6168 82.4479C68.7759 82.4479 68.0505 82.2623 67.4407 81.8911C66.8346 81.5161 66.3668 80.9934 66.0373 80.3229C65.7115 79.6487 65.5487 78.8646 65.5487 77.9707C65.5487 77.0767 65.7115 76.2888 66.0373 75.607C66.3668 74.9214 66.8252 74.3873 67.4123 74.0047C68.0032 73.6184 68.6926 73.4252 69.4805 73.4252C69.935 73.4252 70.3839 73.501 70.8271 73.6525C71.2702 73.804 71.6737 74.0502 72.0373 74.3911C72.4009 74.7282 72.6907 75.1752 72.9066 75.732C73.1225 76.2888 73.2305 76.9744 73.2305 77.7888V78.357H66.5032V77.1979H71.8668C71.8668 76.7055 71.7683 76.2661 71.5714 75.8797C71.3782 75.4934 71.1017 75.1885 70.7418 74.965C70.3858 74.7415 69.9653 74.6297 69.4805 74.6297C68.9464 74.6297 68.4843 74.7623 68.0941 75.0275C67.7077 75.2888 67.4104 75.6297 67.2021 76.0502C66.9937 76.4707 66.8896 76.9214 66.8896 77.4025V78.1752C66.8896 78.8343 67.0032 79.393 67.2305 79.8513C67.4615 80.3059 67.7816 80.6525 68.1907 80.8911C68.5998 81.126 69.0752 81.2434 69.6168 81.2434C69.9691 81.2434 70.2873 81.1941 70.5714 81.0957C70.8593 80.9934 71.1074 80.8419 71.3157 80.6411C71.524 80.4366 71.685 80.1828 71.7987 79.8797L73.0941 80.2434C72.9577 80.6828 72.7286 81.0691 72.4066 81.4025C72.0846 81.732 71.6869 81.9896 71.2134 82.1752C70.7399 82.357 70.2077 82.4479 69.6168 82.4479ZM75.2702 82.2661V73.5388H76.5657V74.857H76.6566C76.8157 74.4252 77.1036 74.0748 77.5202 73.8059C77.9369 73.5369 78.4066 73.4025 78.9293 73.4025C79.0278 73.4025 79.1509 73.4044 79.2987 73.4082C79.4464 73.4119 79.5581 73.4176 79.6339 73.4252V74.7888C79.5884 74.7775 79.4843 74.7604 79.3214 74.7377C79.1623 74.7112 78.9937 74.6979 78.8157 74.6979C78.3915 74.6979 78.0127 74.7869 77.6793 74.965C77.3498 75.1392 77.0884 75.3816 76.8952 75.6922C76.7058 75.9991 76.6112 76.3494 76.6112 76.7434V82.2661H75.2702ZM83.7915 82.4707C83.2385 82.4707 82.7366 82.3665 82.2859 82.1582C81.8351 81.946 81.4772 81.6411 81.212 81.2434C80.9469 80.8419 80.8143 80.357 80.8143 79.7888C80.8143 79.2888 80.9128 78.8835 81.1097 78.5729C81.3067 78.2585 81.57 78.0123 81.8995 77.8343C82.229 77.6563 82.5927 77.5237 82.9904 77.4366C83.3919 77.3457 83.7953 77.2737 84.2006 77.2207C84.7309 77.1525 85.1609 77.1013 85.4904 77.0672C85.8237 77.0294 86.0662 76.9669 86.2177 76.8797C86.373 76.7926 86.4506 76.6411 86.4506 76.4252V76.3797C86.4506 75.8191 86.2972 75.3835 85.9904 75.0729C85.6874 74.7623 85.2272 74.607 84.6097 74.607C83.9696 74.607 83.4677 74.7472 83.104 75.0275C82.7404 75.3078 82.4847 75.607 82.337 75.9252L81.0643 75.4707C81.2915 74.9404 81.5946 74.5275 81.9734 74.232C82.3559 73.9328 82.7726 73.7244 83.2234 73.607C83.6779 73.4858 84.1249 73.4252 84.5643 73.4252C84.8446 73.4252 85.1665 73.4593 85.5302 73.5275C85.8976 73.5919 86.2518 73.7263 86.5927 73.9309C86.9374 74.1354 87.2234 74.4441 87.4506 74.857C87.6779 75.2699 87.7915 75.8229 87.7915 76.5161V82.2661H86.4506V81.0843H86.3825C86.2915 81.2737 86.14 81.4763 85.9279 81.6922C85.7158 81.9082 85.4336 82.0919 85.0813 82.2434C84.729 82.3949 84.2991 82.4707 83.7915 82.4707ZM83.9961 81.2661C84.5264 81.2661 84.9734 81.1619 85.337 80.9536C85.7044 80.7453 85.9809 80.4763 86.1665 80.1468C86.3559 79.8172 86.4506 79.4707 86.4506 79.107V77.8797C86.3938 77.9479 86.2688 78.0104 86.0756 78.0672C85.8862 78.1203 85.6665 78.1676 85.4165 78.2093C85.1703 78.2472 84.9298 78.2813 84.695 78.3116C84.4639 78.3381 84.2764 78.3608 84.1325 78.3797C83.784 78.4252 83.4582 78.4991 83.1552 78.6013C82.8559 78.6998 82.6135 78.8494 82.4279 79.0502C82.2461 79.2472 82.1552 79.5161 82.1552 79.857C82.1552 80.3229 82.3275 80.6752 82.6722 80.9138C83.0207 81.1487 83.462 81.2661 83.9961 81.2661ZM91.5799 70.6297V82.2661H90.239V70.6297H91.5799ZM98.7177 82.2661V70.6297H102.65C103.559 70.6297 104.305 70.7851 104.888 71.0957C105.471 71.4025 105.903 71.8248 106.184 72.3627C106.464 72.9006 106.604 73.5123 106.604 74.1979C106.604 74.8835 106.464 75.4915 106.184 76.0218C105.903 76.5521 105.473 76.9688 104.894 77.2718C104.314 77.571 103.574 77.7207 102.672 77.7207H99.4904V76.4479H102.627C103.248 76.4479 103.748 76.357 104.127 76.1752C104.509 75.9934 104.786 75.7358 104.956 75.4025C105.131 75.0654 105.218 74.6638 105.218 74.1979C105.218 73.732 105.131 73.3248 104.956 72.9763C104.782 72.6279 104.504 72.3589 104.121 72.1695C103.739 71.9763 103.233 71.8797 102.604 71.8797H100.127V82.2661H98.7177ZM104.195 77.0388L107.059 82.2661H105.422L102.604 77.0388H104.195ZM112.336 82.4479C111.495 82.4479 110.769 82.2623 110.159 81.8911C109.553 81.5161 109.086 80.9934 108.756 80.3229C108.43 79.6487 108.267 78.8646 108.267 77.9707C108.267 77.0767 108.43 76.2888 108.756 75.607C109.086 74.9214 109.544 74.3873 110.131 74.0047C110.722 73.6184 111.411 73.4252 112.199 73.4252C112.654 73.4252 113.103 73.501 113.546 73.6525C113.989 73.804 114.392 74.0502 114.756 74.3911C115.12 74.7282 115.409 75.1752 115.625 75.732C115.841 76.2888 115.949 76.9744 115.949 77.7888V78.357H109.222V77.1979H114.586C114.586 76.7055 114.487 76.2661 114.29 75.8797C114.097 75.4934 113.82 75.1885 113.461 74.965C113.105 74.7415 112.684 74.6297 112.199 74.6297C111.665 74.6297 111.203 74.7623 110.813 75.0275C110.426 75.2888 110.129 75.6297 109.921 76.0502C109.712 76.4707 109.608 76.9214 109.608 77.4025V78.1752C109.608 78.8343 109.722 79.393 109.949 79.8513C110.18 80.3059 110.5 80.6525 110.909 80.8911C111.319 81.126 111.794 81.2434 112.336 81.2434C112.688 81.2434 113.006 81.1941 113.29 81.0957C113.578 80.9934 113.826 80.8419 114.034 80.6411C114.243 80.4366 114.404 80.1828 114.517 79.8797L115.813 80.2434C115.676 80.6828 115.447 81.0691 115.125 81.4025C114.803 81.732 114.406 81.9896 113.932 82.1752C113.459 82.357 112.926 82.4479 112.336 82.4479ZM124.86 73.5388L121.632 82.2661H120.269L117.042 73.5388H118.496L120.905 80.4934H120.996L123.405 73.5388H124.86ZM129.976 82.4479C129.135 82.4479 128.41 82.2623 127.8 81.8911C127.194 81.5161 126.726 80.9934 126.397 80.3229C126.071 79.6487 125.908 78.8646 125.908 77.9707C125.908 77.0767 126.071 76.2888 126.397 75.607C126.726 74.9214 127.185 74.3873 127.772 74.0047C128.363 73.6184 129.052 73.4252 129.84 73.4252C130.294 73.4252 130.743 73.501 131.186 73.6525C131.63 73.804 132.033 74.0502 132.397 74.3911C132.76 74.7282 133.05 75.1752 133.266 75.732C133.482 76.2888 133.59 76.9744 133.59 77.7888V78.357H126.863V77.1979H132.226C132.226 76.7055 132.128 76.2661 131.931 75.8797C131.738 75.4934 131.461 75.1885 131.101 74.965C130.745 74.7415 130.325 74.6297 129.84 74.6297C129.306 74.6297 128.844 74.7623 128.453 75.0275C128.067 75.2888 127.77 75.6297 127.561 76.0502C127.353 76.4707 127.249 76.9214 127.249 77.4025V78.1752C127.249 78.8343 127.363 79.393 127.59 79.8513C127.821 80.3059 128.141 80.6525 128.55 80.8911C128.959 81.126 129.435 81.2434 129.976 81.2434C130.328 81.2434 130.647 81.1941 130.931 81.0957C131.219 80.9934 131.467 80.8419 131.675 80.6411C131.883 80.4366 132.044 80.1828 132.158 79.8797L133.453 80.2434C133.317 80.6828 133.088 81.0691 132.766 81.4025C132.444 81.732 132.046 81.9896 131.573 82.1752C131.099 82.357 130.567 82.4479 129.976 82.4479ZM136.971 77.0161V82.2661H135.63V73.5388H136.925V74.9025H137.039C137.243 74.4593 137.554 74.1032 137.971 73.8343C138.387 73.5616 138.925 73.4252 139.584 73.4252C140.175 73.4252 140.692 73.5464 141.135 73.7888C141.578 74.0275 141.923 74.3911 142.169 74.8797C142.416 75.3646 142.539 75.9782 142.539 76.7207V82.2661H141.198V76.8116C141.198 76.126 141.02 75.5919 140.664 75.2093C140.308 74.8229 139.819 74.6297 139.198 74.6297C138.77 74.6297 138.387 74.7226 138.05 74.9082C137.717 75.0938 137.453 75.3646 137.26 75.7207C137.067 76.0767 136.971 76.5085 136.971 77.0161ZM150.489 78.6979V73.5388H151.83V82.2661H150.489V80.7888H150.398C150.194 81.232 149.875 81.6089 149.444 81.9195C149.012 82.2263 148.466 82.3797 147.807 82.3797C147.262 82.3797 146.777 82.2604 146.353 82.0218C145.928 81.7794 145.595 81.4157 145.353 80.9309C145.11 80.4422 144.989 79.8267 144.989 79.0843V73.5388H146.33V78.9934C146.33 79.6297 146.508 80.1373 146.864 80.5161C147.224 80.8949 147.682 81.0843 148.239 81.0843C148.572 81.0843 148.911 80.9991 149.256 80.8286C149.605 80.6582 149.896 80.3968 150.131 80.0445C150.37 79.6922 150.489 79.2434 150.489 78.6979ZM157.945 82.4479C157.104 82.4479 156.379 82.2623 155.769 81.8911C155.163 81.5161 154.695 80.9934 154.365 80.3229C154.04 79.6487 153.877 78.8646 153.877 77.9707C153.877 77.0767 154.04 76.2888 154.365 75.607C154.695 74.9214 155.153 74.3873 155.74 74.0047C156.331 73.6184 157.021 73.4252 157.809 73.4252C158.263 73.4252 158.712 73.501 159.155 73.6525C159.598 73.804 160.002 74.0502 160.365 74.3911C160.729 74.7282 161.019 75.1752 161.235 75.732C161.451 76.2888 161.559 76.9744 161.559 77.7888V78.357H154.831V77.1979H160.195C160.195 76.7055 160.096 76.2661 159.9 75.8797C159.706 75.4934 159.43 75.1885 159.07 74.965C158.714 74.7415 158.293 74.6297 157.809 74.6297C157.275 74.6297 156.812 74.7623 156.422 75.0275C156.036 75.2888 155.739 75.6297 155.53 76.0502C155.322 76.4707 155.218 76.9214 155.218 77.4025V78.1752C155.218 78.8343 155.331 79.393 155.559 79.8513C155.79 80.3059 156.11 80.6525 156.519 80.8911C156.928 81.126 157.403 81.2434 157.945 81.2434C158.297 81.2434 158.615 81.1941 158.9 81.0957C159.187 80.9934 159.435 80.8419 159.644 80.6411C159.852 80.4366 160.013 80.1828 160.127 79.8797L161.422 80.2434C161.286 80.6828 161.057 81.0691 160.735 81.4025C160.413 81.732 160.015 81.9896 159.542 82.1752C159.068 82.357 158.536 82.4479 157.945 82.4479Z" fill="#637381"/>
<rect x="602.492" y="29.364" width="97" height="29" rx="3.5" fill="#F4F7FF"/>
<path d="M616.408 38.6822H617.879L621.34 47.1339H621.459L624.919 38.6822H626.391V48.864H625.237V41.1282H625.138L621.956 48.864H620.842L617.661 41.1282H617.561V48.864H616.408V38.6822ZM631.806 49.0231C631.117 49.0231 630.512 48.859 629.991 48.5309C629.474 48.2028 629.07 47.7437 628.778 47.1538C628.49 46.5638 628.346 45.8744 628.346 45.0856C628.346 44.2901 628.49 43.5958 628.778 43.0025C629.07 42.4092 629.474 41.9485 629.991 41.6204C630.512 41.2923 631.117 41.1282 631.806 41.1282C632.495 41.1282 633.099 41.2923 633.616 41.6204C634.136 41.9485 634.54 42.4092 634.829 43.0025C635.12 43.5958 635.266 44.2901 635.266 45.0856C635.266 45.8744 635.12 46.5638 634.829 47.1538C634.54 47.7437 634.136 48.2028 633.616 48.5309C633.099 48.859 632.495 49.0231 631.806 49.0231ZM631.806 47.9691C632.33 47.9691 632.761 47.8349 633.099 47.5664C633.437 47.298 633.687 46.945 633.849 46.5075C634.012 46.07 634.093 45.596 634.093 45.0856C634.093 44.5752 634.012 44.0996 633.849 43.6588C633.687 43.2179 633.437 42.8616 633.099 42.5899C632.761 42.3181 632.33 42.1822 631.806 42.1822C631.282 42.1822 630.851 42.3181 630.513 42.5899C630.175 42.8616 629.925 43.2179 629.763 43.6588C629.6 44.0996 629.519 44.5752 629.519 45.0856C629.519 45.596 629.6 46.07 629.763 46.5075C629.925 46.945 630.175 47.298 630.513 47.5664C630.851 47.8349 631.282 47.9691 631.806 47.9691ZM638.231 44.2703V48.864H637.057V41.2276H638.191V42.4208H638.29C638.469 42.033 638.741 41.7215 639.106 41.4862C639.47 41.2475 639.941 41.1282 640.517 41.1282C641.035 41.1282 641.487 41.2343 641.875 41.4464C642.263 41.6552 642.564 41.9734 642.78 42.4009C642.995 42.8252 643.103 43.3621 643.103 44.0117V48.864H641.929V44.0913C641.929 43.4914 641.774 43.0241 641.462 42.6893C641.151 42.3512 640.723 42.1822 640.179 42.1822C639.805 42.1822 639.47 42.2634 639.175 42.4258C638.883 42.5882 638.653 42.8252 638.484 43.1367C638.315 43.4483 638.231 43.8261 638.231 44.2703ZM648.568 41.2276V42.222H644.61V41.2276H648.568ZM645.764 39.3981H646.937V46.6765C646.937 47.008 646.985 47.2565 647.081 47.4223C647.181 47.5847 647.307 47.694 647.459 47.7504C647.615 47.8034 647.779 47.8299 647.951 47.8299C648.081 47.8299 648.187 47.8233 648.269 47.81C648.352 47.7935 648.419 47.7802 648.468 47.7703L648.707 48.8242C648.627 48.8541 648.516 48.8839 648.374 48.9137C648.231 48.9469 648.051 48.9634 647.832 48.9634C647.501 48.9634 647.176 48.8922 646.858 48.7497C646.543 48.6071 646.281 48.3901 646.072 48.0984C645.867 47.8067 645.764 47.4388 645.764 46.9947V39.3981ZM651.67 44.2703V48.864H650.497V38.6822H651.67V42.4208H651.769C651.948 42.0264 652.217 41.7132 652.575 41.4812C652.936 41.2459 653.417 41.1282 654.017 41.1282C654.537 41.1282 654.993 41.2326 655.384 41.4414C655.775 41.6469 656.078 41.9634 656.294 42.391C656.512 42.8152 656.622 43.3555 656.622 44.0117V48.864H655.448V44.0913C655.448 43.4848 655.291 43.0158 654.976 42.6843C654.665 42.3496 654.232 42.1822 653.679 42.1822C653.294 42.1822 652.949 42.2634 652.644 42.4258C652.343 42.5882 652.104 42.8252 651.929 43.1367C651.756 43.4483 651.67 43.8261 651.67 44.2703ZM659.941 38.6822V48.864H658.768V38.6822H659.941ZM662.846 51.7277C662.647 51.7277 662.47 51.7111 662.314 51.6779C662.158 51.6481 662.051 51.6183 661.991 51.5884L662.289 50.5544C662.574 50.6273 662.826 50.6538 663.045 50.6339C663.264 50.614 663.458 50.5162 663.627 50.3406C663.799 50.1682 663.956 49.8882 664.099 49.5004L664.318 48.9038L661.494 41.2276H662.767L664.875 47.3129H664.954L667.062 41.2276H668.335L665.093 49.9777C664.947 50.3721 664.767 50.6985 664.551 50.9571C664.336 51.2189 664.086 51.4128 663.801 51.5387C663.519 51.6647 663.201 51.7277 662.846 51.7277Z" fill="#637381"/>
<path d="M677.463 41.9522C677.463 41.8933 677.492 41.8198 677.536 41.7757C677.639 41.6727 677.801 41.6727 677.904 41.7609L681.846 45.4679C681.92 45.5414 682.052 45.5414 682.141 45.4679L686.083 41.7609C686.186 41.658 686.348 41.6727 686.451 41.7757C686.554 41.8786 686.539 42.0404 686.436 42.1434L682.494 45.8503C682.214 46.1004 681.773 46.1004 681.508 45.8503L677.551 42.1434C677.492 42.0846 677.463 42.0257 677.463 41.9522Z" fill="#637381"/>
<path fill-rule="evenodd" clip-rule="evenodd" d="M678.219 41.4106L681.994 44.9601L685.756 41.4219C686.077 41.1086 686.534 41.1934 686.784 41.4428C687.104 41.7634 687.02 42.2252 686.769 42.4763L686.759 42.4865L682.808 46.2012C682.355 46.6065 681.637 46.6184 681.186 46.1933C681.185 46.193 681.186 46.1935 681.186 46.1933L677.218 42.4764C677.095 42.3532 676.992 42.1808 676.992 41.9522C676.992 41.7699 677.07 41.5762 677.204 41.4428C677.487 41.1595 677.928 41.1612 678.211 41.4035L678.219 41.4106ZM681.508 45.8503C681.773 46.1004 682.214 46.1004 682.494 45.8503L686.436 42.1434C686.539 42.0404 686.554 41.8786 686.451 41.7757C686.348 41.6727 686.186 41.658 686.083 41.7609L682.141 45.4679C682.052 45.5414 681.92 45.5414 681.846 45.4679L677.904 41.7609C677.801 41.6727 677.639 41.6727 677.536 41.7757C677.492 41.8198 677.463 41.8933 677.463 41.9522C677.463 42.0257 677.492 42.0846 677.551 42.1434L681.508 45.8503Z" fill="#637381"/>
<rect x="602.492" y="29.364" width="97" height="29" rx="3.5" stroke="#E7E7E7"/>
<defs>
<filter id="filter0_d_121_56969" x="0.71875" y="108.05" width="736.735" height="198.944" filterUnits="userSpaceOnUse" color-interpolation-filters="sRGB">
<feFlood flood-opacity="0" result="BackgroundImageFix"/>
<feColorMatrix in="SourceAlpha" type="matrix" values="0 0 0 0 0 0 0 0 0 0 0 0 0 0 0 0 0 0 127 0" result="hardAlpha"/>
<feOffset dy="18"/>
<feGaussianBlur stdDeviation="29"/>
<feComposite in2="hardAlpha" operator="out"/>
<feColorMatrix type="matrix" values="0 0 0 0 0.188235 0 0 0 0 0.337255 0 0 0 0 0.827451 0 0 0 0.5 0"/>
<feBlend mode="normal" in2="BackgroundImageFix" result="effect1_dropShadow_121_56969"/>
<feBlend mode="normal" in="SourceGraphic" in2="effect1_dropShadow_121_56969" result="shape"/>
</filter>
<filter id="filter1_d_121_56969" x="0.71875" y="135.145" width="736.735" height="216.73" filterUnits="userSpaceOnUse" color-interpolation-filters="sRGB">
<feFlood flood-opacity="0" result="BackgroundImageFix"/>
<feColorMatrix in="SourceAlpha" type="matrix" values="0 0 0 0 0 0 0 0 0 0 0 0 0 0 0 0 0 0 127 0" result="hardAlpha"/>
<feOffset dy="18"/>
<feGaussianBlur stdDeviation="29"/>
<feComposite in2="hardAlpha" operator="out"/>
<feColorMatrix type="matrix" values="0 0 0 0 0.0745098 0 0 0 0 0.760784 0 0 0 0 0.588235 0 0 0 0.5 0"/>
<feBlend mode="normal" in2="BackgroundImageFix" result="effect1_dropShadow_121_56969"/>
<feBlend mode="normal" in="SourceGraphic" in2="effect1_dropShadow_121_56969" result="shape"/>
</filter>
<filter id="filter2_d_121_56969" x="486.719" y="143.042" width="41.4277" height="41.4272" filterUnits="userSpaceOnUse" color-interpolation-filters="sRGB">
<feFlood flood-opacity="0" result="BackgroundImageFix"/>
<feColorMatrix in="SourceAlpha" type="matrix" values="0 0 0 0 0 0 0 0 0 0 0 0 0 0 0 0 0 0 127 0" result="hardAlpha"/>
<feOffset dy="4"/>
<feGaussianBlur stdDeviation="5"/>
<feComposite in2="hardAlpha" operator="out"/>
<feColorMatrix type="matrix" values="0 0 0 0 0 0 0 0 0 0 0 0 0 0 0 0 0 0 0.12 0"/>
<feBlend mode="normal" in2="BackgroundImageFix" result="effect1_dropShadow_121_56969"/>
<feBlend mode="normal" in="SourceGraphic" in2="effect1_dropShadow_121_56969" result="shape"/>
</filter>
<filter id="filter3_d_121_56969" x="425.573" y="93.7986" width="164.649" height="59.3774" filterUnits="userSpaceOnUse" color-interpolation-filters="sRGB">
<feFlood flood-opacity="0" result="BackgroundImageFix"/>
<feColorMatrix in="SourceAlpha" type="matrix" values="0 0 0 0 0 0 0 0 0 0 0 0 0 0 0 0 0 0 127 0" result="hardAlpha"/>
<feOffset dy="1"/>
<feGaussianBlur stdDeviation="2.5"/>
<feComposite in2="hardAlpha" operator="out"/>
<feColorMatrix type="matrix" values="0 0 0 0 0 0 0 0 0 0 0 0 0 0 0 0 0 0 0.14 0"/>
<feBlend mode="normal" in2="BackgroundImageFix" result="effect1_dropShadow_121_56969"/>
<feBlend mode="normal" in="SourceGraphic" in2="effect1_dropShadow_121_56969" result="shape"/>
</filter>
<linearGradient id="paint0_linear_121_56969" x1="59.7184" y1="307.421" x2="59.7184" y2="100.601" gradientUnits="userSpaceOnUse">
<stop stop-color="#E7E7E7"/>
<stop offset="1" stop-color="#E7E7E7" stop-opacity="0"/>
</linearGradient>
<linearGradient id="paint1_linear_121_56969" x1="115.616" y1="307.421" x2="115.616" y2="100.601" gradientUnits="userSpaceOnUse">
<stop stop-color="#E7E7E7"/>
<stop offset="1" stop-color="#E7E7E7" stop-opacity="0"/>
</linearGradient>
<linearGradient id="paint2_linear_121_56969" x1="171.513" y1="307.421" x2="171.513" y2="100.601" gradientUnits="userSpaceOnUse">
<stop stop-color="#E7E7E7"/>
<stop offset="1" stop-color="#E7E7E7" stop-opacity="0"/>
</linearGradient>
<linearGradient id="paint3_linear_121_56969" x1="227.411" y1="307.421" x2="227.411" y2="100.601" gradientUnits="userSpaceOnUse">
<stop stop-color="#E7E7E7"/>
<stop offset="1" stop-color="#E7E7E7" stop-opacity="0"/>
</linearGradient>
<linearGradient id="paint4_linear_121_56969" x1="283.308" y1="307.421" x2="283.308" y2="100.601" gradientUnits="userSpaceOnUse">
<stop stop-color="#E7E7E7"/>
<stop offset="1" stop-color="#E7E7E7" stop-opacity="0"/>
</linearGradient>
<linearGradient id="paint5_linear_121_56969" x1="339.206" y1="307.421" x2="339.206" y2="100.601" gradientUnits="userSpaceOnUse">
<stop stop-color="#E7E7E7"/>
<stop offset="1" stop-color="#E7E7E7" stop-opacity="0"/>
</linearGradient>
<linearGradient id="paint6_linear_121_56969" x1="395.103" y1="307.421" x2="395.103" y2="100.601" gradientUnits="userSpaceOnUse">
<stop stop-color="#E7E7E7"/>
<stop offset="1" stop-color="#E7E7E7" stop-opacity="0"/>
</linearGradient>
<linearGradient id="paint7_linear_121_56969" x1="451.001" y1="307.421" x2="451.001" y2="100.601" gradientUnits="userSpaceOnUse">
<stop stop-color="#E7E7E7"/>
<stop offset="1" stop-color="#E7E7E7" stop-opacity="0"/>
</linearGradient>
<linearGradient id="paint8_linear_121_56969" x1="506.898" y1="307.421" x2="506.898" y2="100.601" gradientUnits="userSpaceOnUse">
<stop stop-color="#E7E7E7"/>
<stop offset="1" stop-color="#E7E7E7" stop-opacity="0"/>
</linearGradient>
<linearGradient id="paint9_linear_121_56969" x1="562.796" y1="307.421" x2="562.796" y2="100.601" gradientUnits="userSpaceOnUse">
<stop stop-color="#E7E7E7"/>
<stop offset="1" stop-color="#E7E7E7" stop-opacity="0"/>
</linearGradient>
<linearGradient id="paint10_linear_121_56969" x1="618.693" y1="307.421" x2="618.693" y2="100.601" gradientUnits="userSpaceOnUse">
<stop stop-color="#E7E7E7"/>
<stop offset="1" stop-color="#E7E7E7" stop-opacity="0"/>
</linearGradient>
<linearGradient id="paint11_linear_121_56969" x1="674.59" y1="307.421" x2="674.59" y2="100.601" gradientUnits="userSpaceOnUse">
<stop stop-color="#E7E7E7"/>
<stop offset="1" stop-color="#E7E7E7" stop-opacity="0"/>
</linearGradient>
</defs>
</svg>
