<svg width="225" height="80" viewBox="0 0 225 80" fill="none" xmlns="http://www.w3.org/2000/svg">
<rect width="225" height="80" rx="40" fill="#EAEFFF"/>
<rect x="0.5" y="0.5" width="224" height="79" rx="39.5" stroke="#3056D3" stroke-opacity="0.2"/>
<path d="M72 40.5C72 44.625 68.6237 48 64.4612 48C59.0037 48 56.2287 44.2499 53.5 40.5C50.7713 36.75 47.9962 33 42.5387 33C38.3762 33 35 36.375 35 40.5" stroke="url(#paint0_linear_121_55015)" stroke-width="4" stroke-miterlimit="10"/>
<path d="M72 40.5C72 36.375 68.6237 33 64.4612 33C59.0038 33 56.2288 36.75 53.5 40.5C50.7712 44.25 47.9962 48 42.5387 48C38.3762 48 35 44.625 35 40.5" stroke="url(#paint1_linear_121_55015)" stroke-width="4" stroke-miterlimit="10"/>
<path d="M86.5344 49.9581V30.5972H89.072V47.4327H97.0016V49.9581H86.5344ZM99.549 34.6377V31.944H102.087V34.6377H99.549ZM99.549 49.9581V35.9845H102.087V49.9581H99.549ZM133.834 34.6377V31.944H136.372V34.6377H133.834ZM133.834 49.9581V35.9845H136.372V49.9581H133.834ZM116.33 41.0773C116.251 40.5302 116.132 39.9409 115.933 39.3517C115.735 38.7624 115.418 38.2153 115.061 37.7102C114.665 37.2051 114.189 36.7842 113.554 36.4896C112.92 36.195 112.166 36.0266 111.255 36.0266C110.065 36.0266 109.074 36.2792 108.242 36.8264C107.845 37.0789 107.528 37.3735 107.21 37.7102V36.0266H104.673V50.0002H107.21V43.0555H107.25C107.25 42.2137 107.33 41.5403 107.528 40.951C107.686 40.3618 107.924 39.8988 108.242 39.5621C108.559 39.2254 108.915 38.9729 109.312 38.8045C109.709 38.6362 110.144 38.552 110.62 38.552C111.334 38.552 111.889 38.7203 112.325 39.0149C112.762 39.3096 113.078 39.7304 113.356 40.1935C113.594 40.6985 113.753 41.2036 113.832 41.7928C113.911 42.3821 113.951 42.9292 113.951 43.4764V50.0002H116.528V42.5505C116.449 42.1295 116.409 41.6244 116.33 41.0773ZM180.41 41.0773C180.331 40.5302 180.212 39.9409 180.014 39.3517C179.816 38.7624 179.498 38.2153 179.141 37.7102C178.745 37.2051 178.27 36.7842 177.635 36.4896C177.001 36.195 176.248 36.0266 175.336 36.0266C174.146 36.0266 173.155 36.2792 172.322 36.8264C171.926 37.0789 171.608 37.3735 171.291 37.7102V36.0266H168.753V50.0002H171.291V43.0555H171.331C171.331 42.2137 171.41 41.5403 171.608 40.951C171.767 40.3618 172.005 39.8988 172.322 39.5621C172.639 39.2254 172.996 38.9729 173.393 38.8045C173.789 38.6362 174.225 38.552 174.701 38.552C175.415 38.552 175.97 38.7203 176.406 39.0149C176.842 39.3096 177.16 39.7304 177.397 40.1935C177.635 40.6985 177.794 41.2036 177.873 41.7928C177.952 42.3821 177.992 42.9292 177.992 43.4764V50.0002H180.569V42.5505C180.529 42.1295 180.49 41.6244 180.41 41.0773ZM130.256 43.6868H131.525C131.604 42.0874 131.445 40.7406 130.97 39.5621C130.494 38.4257 129.78 37.4998 128.868 36.9105C127.917 36.2792 126.767 35.9845 125.459 35.9845C124.19 35.9845 123.04 36.2792 122.088 36.8684C121.137 37.4577 120.384 38.2573 119.829 39.3517C119.274 40.4039 119.035 41.6666 119.035 43.0975C119.035 44.4444 119.313 45.665 119.868 46.7172C120.423 47.7694 121.176 48.5691 122.168 49.1163C123.159 49.7055 124.309 50.0002 125.617 50.0002C126.886 50.0002 128.036 49.6635 129.107 49.0321C130.137 48.4008 130.931 47.4749 131.445 46.2963L128.948 45.4967C128.631 46.1701 128.155 46.7172 127.599 47.054C127.005 47.4327 126.331 47.6011 125.538 47.6011C124.309 47.6011 123.397 47.2223 122.763 46.4226C122.247 45.7492 121.93 44.8653 121.851 43.771H129.107H130.256V43.6868ZM122.643 39.4779C123.278 38.6782 124.23 38.2573 125.498 38.2573C126.648 38.2573 127.52 38.6362 128.076 39.3517C128.472 39.8568 128.75 40.6143 128.868 41.5403H121.771C121.93 40.6985 122.247 40.0251 122.643 39.4779ZM145.025 49.9581C143.676 49.9581 142.527 49.6635 141.575 49.0321C140.623 48.4429 139.909 47.6011 139.394 46.5489C138.879 45.4967 138.641 44.2761 138.641 42.9713C138.641 41.6244 138.918 40.4039 139.434 39.3517C139.949 38.2995 140.663 37.4577 141.615 36.8684C142.566 36.2792 143.716 35.9845 145.025 35.9845C146.452 35.9845 147.681 36.3633 148.712 37.0789C149.742 37.7944 150.417 38.8045 150.734 40.0251L148.196 40.7406C147.959 39.983 147.522 39.4359 146.967 39.0149C146.412 38.594 145.739 38.3836 144.985 38.3836C144.152 38.3836 143.478 38.594 142.923 38.9729C142.368 39.3517 141.972 39.8988 141.734 40.6143C141.456 41.2877 141.337 42.0874 141.337 42.9713C141.337 44.3181 141.654 45.4545 142.289 46.2963C142.883 47.1382 143.795 47.559 145.025 47.559C145.857 47.559 146.492 47.3485 147.007 46.9698C147.522 46.591 147.919 46.0438 148.157 45.3283L150.734 45.9596C150.298 47.2644 149.584 48.2324 148.593 48.948C147.641 49.6214 146.412 49.9581 145.025 49.9581ZM159.744 49.9581C158.435 49.9581 157.285 49.6634 156.334 49.0742C155.382 48.4849 154.629 47.6432 154.114 46.591C153.598 45.5387 153.32 44.3181 153.32 42.9713C153.32 41.5824 153.598 40.3618 154.114 39.3096C154.669 38.2573 155.382 37.4577 156.373 36.8684C157.325 36.2792 158.475 35.9845 159.744 35.9845C161.052 35.9845 162.202 36.2792 163.153 36.8684C164.106 37.4577 164.859 38.2995 165.414 39.3517C165.929 40.4039 166.207 41.6244 166.207 42.9713C166.207 44.3603 165.929 45.5809 165.414 46.633C164.898 47.6852 164.145 48.485 163.153 49.1163C162.162 49.6634 161.052 49.9581 159.744 49.9581ZM159.744 47.559C161.013 47.559 161.925 47.1382 162.559 46.2963C163.194 45.4545 163.51 44.3603 163.51 42.9713C163.51 41.5824 163.194 40.4881 162.559 39.6463C161.925 38.8045 161.013 38.3836 159.744 38.3836C158.872 38.3836 158.197 38.594 157.642 38.9729C157.087 39.3517 156.691 39.8988 156.413 40.5722C156.136 41.2457 156.017 42.0454 156.017 42.9292C156.017 44.3181 156.334 45.4125 156.968 46.2543C157.563 47.1381 158.515 47.559 159.744 47.559ZM188.786 49.9581C187.2 49.9581 185.892 49.6214 184.86 48.9058C183.87 48.1903 183.235 47.1802 182.997 45.9176L185.614 45.4967C185.772 46.1701 186.169 46.7172 186.724 47.1381C187.319 47.5169 188.033 47.7274 188.905 47.7274C189.698 47.7274 190.332 47.559 190.769 47.2223C191.205 46.8856 191.442 46.4647 191.442 45.8754C191.442 45.5387 191.363 45.2862 191.205 45.0758C191.046 44.8653 190.729 44.6548 190.214 44.4865C189.698 44.3181 188.945 44.0656 187.914 43.771C186.804 43.4764 185.892 43.1397 185.217 42.803C184.543 42.4663 184.068 42.0453 183.79 41.6244C183.513 41.1615 183.354 40.6143 183.354 39.983C183.354 39.1833 183.552 38.4678 183.988 37.8786C184.425 37.2893 185.019 36.8264 185.772 36.4896C186.526 36.1529 187.438 35.9845 188.469 35.9845C189.46 35.9845 190.372 36.1529 191.165 36.4475C191.958 36.7842 192.593 37.2051 193.068 37.7944C193.544 38.3836 193.861 39.057 193.94 39.8568L191.324 40.3197C191.244 39.6884 190.927 39.1833 190.451 38.8045C189.936 38.4257 189.302 38.2153 188.508 38.2153C187.755 38.1732 187.121 38.2995 186.645 38.594C186.169 38.8887 185.931 39.2675 185.931 39.7726C185.931 40.0671 186.01 40.3197 186.209 40.5302C186.407 40.7406 186.764 40.951 187.279 41.1194C187.794 41.2877 188.588 41.5403 189.618 41.7928C190.729 42.0874 191.601 42.3821 192.236 42.7608C192.87 43.0975 193.346 43.5185 193.623 43.9814C193.901 44.4444 194.06 45.0337 194.06 45.7071C194.06 47.0118 193.584 48.0641 192.632 48.7796C191.76 49.5793 190.451 49.9581 188.786 49.9581Z" fill="black"/>
<defs>
<linearGradient id="paint0_linear_121_55015" x1="35" y1="36.75" x2="53.5142" y2="36.75" gradientUnits="userSpaceOnUse">
<stop offset="0.2862" stop-color="#E843A1"/>
<stop offset="1" stop-color="#003FFF"/>
</linearGradient>
<linearGradient id="paint1_linear_121_55015" x1="35" y1="40.5" x2="72.0144" y2="40.5" gradientUnits="userSpaceOnUse">
<stop offset="0.16" stop-color="#E843A1"/>
<stop offset="0.84" stop-color="#690AFF"/>
</linearGradient>
</defs>
</svg>
