<svg width="25" height="25" viewBox="0 0 25 25" fill="none" xmlns="http://www.w3.org/2000/svg">
<path d="M12.4993 24.5312C5.8587 24.5312 0.507141 19.1406 0.507141 12.5C0.507141 5.85937 5.8587 0.507812 12.4993 0.507812C19.1399 0.507812 24.5306 5.85937 24.5306 12.5C24.5306 19.1406 19.1399 24.5312 12.4993 24.5312ZM12.4993 1.875C6.63995 1.875 1.87433 6.64062 1.87433 12.5C1.87433 18.3594 6.63995 23.1641 12.4993 23.1641C18.3587 23.1641 23.1634 18.3594 23.1634 12.5C23.1634 6.64062 18.3587 1.875 12.4993 1.875Z" fill="#13C296"/>
<path d="M11.1702 15.2344C10.8968 15.2344 10.6624 15.1562 10.428 14.9609L7.84991 12.4609C7.57648 12.1875 7.57648 11.7578 7.84991 11.4844C8.12335 11.2109 8.55304 11.2109 8.82648 11.4844L11.1702 13.7891L16.1702 8.94531C16.4437 8.67187 16.8734 8.67187 17.1468 8.94531C17.4202 9.21875 17.4202 9.64844 17.1468 9.92188L11.9515 15C11.678 15.1563 11.4046 15.2344 11.1702 15.2344Z" fill="#13C296"/>
</svg>
