<svg width="25" height="25" viewBox="0 0 25 25" fill="none" xmlns="http://www.w3.org/2000/svg">
<path d="M12.4797 0C5.56911 0 0 5.56911 0 12.4797C0 19.3902 5.56911 25 12.4797 25C19.3902 25 25 19.3902 25 12.4797C25 5.56911 19.3902 0 12.4797 0ZM12.4797 23.5772C6.38211 23.5772 1.42276 18.5772 1.42276 12.4797C1.42276 6.38211 6.38211 1.42276 12.4797 1.42276C18.5772 1.42276 23.5772 6.38211 23.5772 12.4797C23.5772 18.5772 18.5772 23.5772 12.4797 23.5772Z" fill="#FF9494"/>
<path d="M16.2203 8.73978C15.9357 8.45523 15.4885 8.45523 15.204 8.73978L12.4804 11.4634L9.75684 8.73978C9.47228 8.45523 9.02513 8.45523 8.74058 8.73978C8.45602 9.02433 8.45602 9.47149 8.74058 9.75604L11.4642 12.4796L8.74058 15.2032C8.45602 15.4878 8.45602 15.9349 8.74058 16.2195C8.86253 16.3414 9.06578 16.4227 9.22838 16.4227C9.39098 16.4227 9.59423 16.3414 9.71619 16.2195L12.4398 13.4959L15.1633 16.2195C15.2853 16.3414 15.4885 16.4227 15.6511 16.4227C15.8137 16.4227 16.017 16.3414 16.1389 16.2195C16.4235 15.9349 16.4235 15.4878 16.1389 15.2032L13.4967 12.4796L16.2203 9.75604C16.4642 9.47149 16.4642 9.02433 16.2203 8.73978Z" fill="#FF9494"/>
</svg>
