<svg width="15" height="14" viewBox="0 0 15 14" fill="none" xmlns="http://www.w3.org/2000/svg">
<path d="M7.45136 9.81506C8.81552 9.81506 9.92139 8.70919 9.92139 7.34503C9.92139 5.98087 8.81552 4.875 7.45136 4.875C6.08719 4.875 4.98132 5.98087 4.98132 7.34503C4.98132 8.70919 6.08719 9.81506 7.45136 9.81506Z" fill="#CDCED6"/>
<path d="M10.1343 0.744141H4.72579C2.57516 0.744141 0.829102 2.4902 0.829102 4.64083V10.0068C0.829102 12.2 2.57516 13.946 4.72579 13.946H10.0917C12.2849 13.946 14.031 12.2 14.031 10.0494V4.64083C14.031 2.4902 12.2849 0.744141 10.1343 0.744141ZM7.45134 10.5817C5.64141 10.5817 4.21475 9.11244 4.21475 7.34509C4.21475 5.57774 5.6627 4.1085 7.45134 4.1085C9.2187 4.1085 10.6666 5.57774 10.6666 7.34509C10.6666 9.11244 9.23999 10.5817 7.45134 10.5817ZM11.923 4.4066C11.71 4.64083 11.3906 4.76859 11.0286 4.76859C10.7092 4.76859 10.3898 4.64083 10.1343 4.4066C9.90009 4.17238 9.77232 3.87427 9.77232 3.51228C9.77232 3.15029 9.90009 2.87348 10.1343 2.61796C10.3685 2.36244 10.6666 2.23468 11.0286 2.23468C11.348 2.23468 11.6887 2.36244 11.923 2.59667C12.1359 2.87348 12.2849 3.19288 12.2849 3.53357C12.2637 3.87427 12.1359 4.17238 11.923 4.4066Z" fill="#CDCED6"/>
<path d="M11.0497 3.00098C10.7729 3.00098 10.5387 3.2352 10.5387 3.51202C10.5387 3.78883 10.7729 4.02306 11.0497 4.02306C11.3266 4.02306 11.5608 3.78883 11.5608 3.51202C11.5608 3.2352 11.3478 3.00098 11.0497 3.00098Z" fill="#CDCED6"/>
</svg>
