<svg width="48" height="47" viewBox="0 0 48 47" fill="none" xmlns="http://www.w3.org/2000/svg">
<rect x="0.751953" y="0.286621" width="46.5812" height="46.5812" rx="23.2906" fill="#EFF2F7"/>
<path fill-rule="evenodd" clip-rule="evenodd" d="M16.6807 19.8484C17.2454 19.8484 17.7032 20.2857 17.7032 20.8251V30.0061H30.3824V20.8251C30.3824 20.2857 30.8402 19.8484 31.4049 19.8484C31.9696 19.8484 32.4274 20.2857 32.4274 20.8251V30.9828C32.4274 31.5222 31.9696 31.9595 31.4049 31.9595H16.6807C16.116 31.9595 15.6582 31.5222 15.6582 30.9828V20.8251C15.6582 20.2857 16.116 19.8484 16.6807 19.8484Z" fill="#8611ce"/>
<path fill-rule="evenodd" clip-rule="evenodd" d="M13.7949 16.2773C13.7949 15.677 14.2631 15.1904 14.8406 15.1904H33.2449C33.8225 15.1904 34.2906 15.677 34.2906 16.2773V20.6249C34.2906 21.2252 33.8225 21.7118 33.2449 21.7118H14.8406C14.2631 21.7118 13.7949 21.2252 13.7949 20.6249V16.2773ZM15.8863 17.3642V19.538H32.1992V17.3642H15.8863Z" fill="#8611ce"/>
<path fill-rule="evenodd" clip-rule="evenodd" d="M22.1797 23.5749C22.1797 23.0604 22.5005 22.6433 22.8963 22.6433H25.1895C25.5853 22.6433 25.9062 23.0604 25.9062 23.5749C25.9062 24.0895 25.5853 24.5066 25.1895 24.5066H22.8963C22.5005 24.5066 22.1797 24.0895 22.1797 23.5749Z" fill="#8611ce"/>
</svg>
