<svg width="47" height="47" viewBox="0 0 47 47" fill="none" xmlns="http://www.w3.org/2000/svg">
<rect x="0.264648" y="0.286621" width="46.5812" height="46.5812" rx="23.2906" fill="#EFF2F7"/>
<g clip-path="url(#clip0_121_56938)">
<path fill-rule="evenodd" clip-rule="evenodd" d="M13.6387 26.7012C14.5392 25.8008 15.7604 25.2949 17.0339 25.2949H24.4869C25.7603 25.2949 26.9815 25.8008 27.882 26.7012C28.7824 27.6017 29.2883 28.8229 29.2883 30.0964V31.9596C29.2883 32.5533 28.807 33.0346 28.2134 33.0346C27.6197 33.0346 27.1384 32.5533 27.1384 31.9596V30.0964C27.1384 29.3931 26.859 28.7187 26.3618 28.2214C25.8645 27.7242 25.1901 27.4448 24.4869 27.4448H17.0339C16.3306 27.4448 15.6562 27.7242 15.1589 28.2214C14.6617 28.7187 14.3823 29.3931 14.3823 30.0964V31.9596C14.3823 32.5533 13.9011 33.0346 13.3074 33.0346C12.7137 33.0346 12.2324 32.5533 12.2324 31.9596V30.0964C12.2324 28.8229 12.7383 27.6017 13.6387 26.7012Z" fill="#8611ce"/>
<path fill-rule="evenodd" clip-rule="evenodd" d="M20.7604 16.2654C19.296 16.2654 18.1089 17.4525 18.1089 18.9169C18.1089 20.3813 19.296 21.5685 20.7604 21.5685C22.2248 21.5685 23.412 20.3813 23.412 18.9169C23.412 17.4525 22.2248 16.2654 20.7604 16.2654ZM15.959 18.9169C15.959 16.2652 18.1087 14.1155 20.7604 14.1155C23.4122 14.1155 25.5619 16.2652 25.5619 18.9169C25.5619 21.5687 23.4122 23.7184 20.7604 23.7184C18.1087 23.7184 15.959 21.5687 15.959 18.9169Z" fill="#8611ce"/>
<path fill-rule="evenodd" clip-rule="evenodd" d="M29.968 26.2222C30.1164 25.6474 30.7027 25.3017 31.2775 25.4502C32.3076 25.7161 33.2202 26.3167 33.872 27.1575C34.5237 27.9983 34.8778 29.0317 34.8786 30.0956V31.9596C34.8786 32.5533 34.3974 33.0346 33.8037 33.0346C33.21 33.0346 32.7287 32.5533 32.7287 31.9596V30.0967C32.7282 29.5094 32.5326 28.9388 32.1728 28.4746C31.8129 28.0103 31.3089 27.6787 30.7401 27.5318C30.1652 27.3834 29.8196 26.7971 29.968 26.2222Z" fill="#8611ce"/>
<path fill-rule="evenodd" clip-rule="evenodd" d="M26.2409 15.0449C26.3881 14.4698 26.9737 14.1229 27.5489 14.2702C28.5817 14.5346 29.4971 15.1353 30.1508 15.9775C30.8045 16.8196 31.1594 17.8555 31.1594 18.9216C31.1594 19.9877 30.8045 21.0235 30.1508 21.8657C29.4971 22.7079 28.5817 23.3085 27.5489 23.573C26.9737 23.7202 26.3881 23.3734 26.2409 22.7983C26.0936 22.2231 26.4405 21.6375 27.0156 21.4903C27.586 21.3442 28.0915 21.0125 28.4525 20.5474C28.8135 20.0823 29.0095 19.5103 29.0095 18.9216C29.0095 18.3328 28.8135 17.7608 28.4525 17.2957C28.0915 16.8306 27.586 16.4989 27.0156 16.3529C26.4405 16.2056 26.0936 15.62 26.2409 15.0449Z" fill="#8611ce"/>
</g>
<defs>
<clipPath id="clip0_121_56938">
<rect width="22.359" height="22.359" fill="white" transform="translate(12.376 12.3955)"/>
</clipPath>
</defs>
</svg>
